<svg id="Group_1" data-name="Group 1" xmlns="http://www.w3.org/2000/svg" width="114.992" height="57.311" viewBox="0 0 114.992 57.311">
  <path id="Path_1" data-name="Path 1" d="M115.4,95.482c-.917-2.045,8.913,19.6,9.346,1.562,0,0,4.711,12.7,11.207-5.119,0,0-4.475,18.477,11.07-1.78,0,0-9.978,17.716,2.02,11.583,0,0-8.019,6.9,6,5.878,0,0-12.532,3.3-3.979,10.562,0,0-10.673-4.167-.694,10.386,0,0-9.644-11-9.743,0,0,0-3.484-9.626-6.433,7.656,0,0-.063-13.794-3.943-7.222,0,0-1.562-4.318-3.582-.545,0,0,.434-6.353-8.616,3.668,0,0,8.713-11.622-2.058-7.154,0,0,7.823-5.772-7.623-4.317,0,0,18.73-2.364,2.355-12.708,0,0,15.545,11.8,4.673-12.449" transform="translate(-108.335 -89.927)" fill="#fff"/>
  <path id="Path_2" data-name="Path 2" d="M115.235,94.483l-.277.149-.046-.1L114.9,94.5l-.008-.019-.008-.021-.007-.027-.009-.083a.354.354,0,0,1,.036-.158l.109-.128.164-.052a.282.282,0,0,1,.155.046l.072.064.036.052.031.058a50.832,50.832,0,0,0,2.621,4.668,19.065,19.065,0,0,0,2.166,2.844,3.218,3.218,0,0,0,1.963,1.2.954.954,0,0,0,.683-.29,4.087,4.087,0,0,0,.909-2.033,23.79,23.79,0,0,0,.461-4.58l.595-.118.017.043a11.351,11.351,0,0,0,1.229,2.275,5.8,5.8,0,0,0,1.235,1.306,2.561,2.561,0,0,0,1.521.553c.818,0,1.792-.467,2.923-1.882A27.1,27.1,0,0,0,135.5,90.8l.585.212s-.036.148-.091.409a21.784,21.784,0,0,0-.5,4.114,5.423,5.423,0,0,0,.3,2.023,1.344,1.344,0,0,0,.39.548.93.93,0,0,0,.6.19c.646.01,1.757-.518,3.364-1.977a57.334,57.334,0,0,0,6.47-7.391l.5.4s-.059.1-.164.3c-.369.68-1.3,2.439-2.127,4.421a17.022,17.022,0,0,0-1.555,5.707,2.321,2.321,0,0,0,.363,1.422,1.47,1.47,0,0,0,1.261.508,9.266,9.266,0,0,0,3.848-1.259l.321.572s-.031.027-.091.082a10.186,10.186,0,0,0-1.216,1.331,3.64,3.64,0,0,0-.858,1.962,1.2,1.2,0,0,0,.207.692,2.648,2.648,0,0,0,1.513.911,13.338,13.338,0,0,0,3.667.4c.757,0,1.61-.032,2.568-.1l.093.666-.073.02a17.064,17.064,0,0,0-3.663,1.543,8.088,8.088,0,0,0-2.107,1.685,3.388,3.388,0,0,0-.887,2.2,3.936,3.936,0,0,0,.627,2.02,10.374,10.374,0,0,0,2.24,2.5l-.293.586-.058-.022a8.424,8.424,0,0,0-2.572-.511,2.334,2.334,0,0,0-1.371.349,1.47,1.47,0,0,0-.544,1.3,8.141,8.141,0,0,0,.906,3.176,38.837,38.837,0,0,0,3.294,5.57l-.469.437s-.064-.073-.185-.2a26.6,26.6,0,0,0-2.831-2.656,12.9,12.9,0,0,0-2.031-1.356,4.326,4.326,0,0,0-1.9-.567,1.7,1.7,0,0,0-1.556.917,7.419,7.419,0,0,0-.706,3.636l-.6.121-.009-.025a7.855,7.855,0,0,0-.687-1.366,3.5,3.5,0,0,0-.643-.768,1.089,1.089,0,0,0-.688-.3,1.077,1.077,0,0,0-.751.377,7.569,7.569,0,0,0-1.481,2.87,46.072,46.072,0,0,0-1.583,6.8l-.612-.06s0-.137-.006-.38a41.482,41.482,0,0,0-.381-4.9,11.313,11.313,0,0,0-.6-2.472,2.359,2.359,0,0,0-.411-.7.531.531,0,0,0-.39-.2.982.982,0,0,0-.625.333,5.878,5.878,0,0,0-.958,1.288l-.325.551-.221-.61-.007-.018a5.674,5.674,0,0,0-.54-1.05,2.609,2.609,0,0,0-.512-.584.893.893,0,0,0-.552-.226.933.933,0,0,0-.608.27,3.87,3.87,0,0,0-.81,1.109l-.574-.2v-.105a2.542,2.542,0,0,0-.172-.947,1,1,0,0,0-.3-.4.872.872,0,0,0-.551-.167,4.581,4.581,0,0,0-2.41,1.113,32.8,32.8,0,0,0-4.66,4.44l-.458-.452s.05-.066.139-.191a30.806,30.806,0,0,0,1.81-2.821,15.337,15.337,0,0,0,.924-1.915,4.832,4.832,0,0,0,.384-1.635,1.014,1.014,0,0,0-.254-.762,1.4,1.4,0,0,0-1.015-.3,10.591,10.591,0,0,0-3.7,1l-.282-.6.078-.06a8.037,8.037,0,0,0,1.046-.985,2.471,2.471,0,0,0,.721-1.4.722.722,0,0,0-.169-.471,2.516,2.516,0,0,0-1.382-.7,14.425,14.425,0,0,0-3.389-.313c-1.178,0-2.607.072-4.329.234l-.062-.673s.136-.017.381-.056a22.758,22.758,0,0,0,4.924-1.346,8.385,8.385,0,0,0,2.485-1.515,2.832,2.832,0,0,0,1.006-2.072,4.724,4.724,0,0,0-1.4-2.964,23.23,23.23,0,0,0-5.155-4.125l.154-.293.176-.278s.055.042.162.119a22.275,22.275,0,0,0,2.49,1.557,8.281,8.281,0,0,0,3.482,1.133,1.719,1.719,0,0,0,1.365-.53,3.013,3.013,0,0,0,.55-2.031c0-2.167-1.019-6.012-3.829-12.27l.277-.149.277-.149c2.824,6.3,3.887,10.185,3.892,12.568a3.7,3.7,0,0,1-.722,2.5,2.3,2.3,0,0,1-1.811.738,9.641,9.641,0,0,1-4.245-1.473,22.488,22.488,0,0,1-2.24-1.457l.33-.571a23.81,23.81,0,0,1,5.3,4.246,5.4,5.4,0,0,1,1.573,3.429,3.192,3.192,0,0,1-.437,1.609,5.731,5.731,0,0,1-2.208,2,21.484,21.484,0,0,1-6.7,2.049l-.035-.336-.027-.337c1.736-.163,3.181-.236,4.382-.236a11.66,11.66,0,0,1,4.268.571,2.374,2.374,0,0,1,.968.675,1.446,1.446,0,0,1,.321.916,2.3,2.3,0,0,1-.359,1.144A7.5,7.5,0,0,1,116,124.237l-.173-.28-.109-.316a11.068,11.068,0,0,1,3.918-1.044,1.958,1.958,0,0,1,1.427.474,1.719,1.719,0,0,1,.459,1.265,5.986,5.986,0,0,1-.548,2.186,27.247,27.247,0,0,1-2.85,4.8l-.239-.215-.22-.238a33.383,33.383,0,0,1,4.757-4.528,5.079,5.079,0,0,1,2.752-1.227,1.455,1.455,0,0,1,.9.289,1.864,1.864,0,0,1,.626,1.03,3.562,3.562,0,0,1,.108.874c0,.092,0,.149,0,.156l-.308-.025-.266-.171a4.5,4.5,0,0,1,.961-1.3,1.381,1.381,0,0,1,1.957-.018,5.192,5.192,0,0,1,1.218,1.907l-.287.125-.259-.184a6.5,6.5,0,0,1,1.076-1.435,1.546,1.546,0,0,1,1.026-.494,1.183,1.183,0,0,1,.913.5,5.674,5.674,0,0,1,.876,2.215,38.222,38.222,0,0,1,.621,6.617l-.309,0-.3-.062a36.368,36.368,0,0,1,2.155-8.318,5.772,5.772,0,0,1,1.1-1.736,1.664,1.664,0,0,1,1.164-.551,1.712,1.712,0,0,1,1.125.494,5.345,5.345,0,0,1,1.081,1.506,8.407,8.407,0,0,1,.395.887l-.287.125-.309,0a8.07,8.07,0,0,1,.807-4,2.318,2.318,0,0,1,2.072-1.222,5.26,5.26,0,0,1,2.481.8,23.261,23.261,0,0,1,4.915,4.19l-.223.234-.247.2a39.463,39.463,0,0,1-3.352-5.673,8.787,8.787,0,0,1-.972-3.478,2.174,2.174,0,0,1,.818-1.865,2.884,2.884,0,0,1,1.714-.463,9.043,9.043,0,0,1,2.836.572l-.1.319-.189.267a11.005,11.005,0,0,1-2.379-2.664,4.656,4.656,0,0,1-.728-2.389,4.17,4.17,0,0,1,1.177-2.8,11.121,11.121,0,0,1,3.78-2.5,17.435,17.435,0,0,1,2.246-.8l.072.329.02.338c-.97.07-1.836.1-2.609.1a10.9,10.9,0,0,1-4.634-.731,2.607,2.607,0,0,1-1.041-.853,1.924,1.924,0,0,1-.328-1.094,3.228,3.228,0,0,1,.4-1.441,9.548,9.548,0,0,1,2.006-2.465l.191.266.131.306a9.76,9.76,0,0,1-4.109,1.322,2.061,2.061,0,0,1-1.734-.749,3.015,3.015,0,0,1-.508-1.858,11.735,11.735,0,0,1,.625-3.325,46.134,46.134,0,0,1,3.313-7.457l.263.177.236.218a57.913,57.913,0,0,1-6.55,7.477c-1.659,1.492-2.831,2.122-3.757,2.132a1.517,1.517,0,0,1-.954-.316,2.386,2.386,0,0,1-.764-1.327,7.382,7.382,0,0,1-.189-1.8,23.457,23.457,0,0,1,.608-4.7l.3.087.287.125a27.709,27.709,0,0,1-3.818,7.606c-1.193,1.5-2.339,2.115-3.388,2.114a3.2,3.2,0,0,1-1.971-.748,8.038,8.038,0,0,1-1.925-2.414,11.684,11.684,0,0,1-.677-1.436l.286-.127.309.009a19.082,19.082,0,0,1-.777,5.752,3.509,3.509,0,0,1-.806,1.354,1.55,1.55,0,0,1-1.088.456,3.876,3.876,0,0,1-2.488-1.491,26.667,26.667,0,0,1-3.316-4.774c-.451-.79-.827-1.5-1.092-2.015-.132-.257-.237-.464-.308-.607l-.082-.163-.019-.038h0l.225-.153-.215.17-.01-.016.225-.153-.215.17.245-.193-.222.224-.023-.031.245-.193-.222.224.226-.228-.185.269-.041-.04.226-.228-.185.269.186-.269v.338a.278.278,0,0,1-.186-.068l.186-.269v0l.164.286-.164.052v-.338l.164.286-.164-.286.294.1a.338.338,0,0,1-.13.184l-.164-.286.294.1-.294-.1h.309l-.014.1-.294-.1h0l.3-.082.009.082h-.307l.3-.082-.276.076.262-.122.014.046-.276.076.262-.122-.071.033.07-.035v0l-.071.033.07-.035c0,.009.023.053.053.119Z" transform="translate(-108.172 -88.928)" fill="#1a1818"/>
  <path id="Path_3" data-name="Path 3" d="M184.841,169.793c0-5.242,5.231-9.5,11.687-9.5s11.686,4.255,11.686,9.5-5.232,9.5-11.686,9.5-11.687-4.252-11.687-9.5" transform="translate(-171.133 -147.536)" fill="#ffd400"/>
  <path id="Path_4" data-name="Path 4" d="M182.047,164.5l-.062.044a18.344,18.344,0,0,0-3.218,3.031A10.359,10.359,0,0,0,176.085,174a8.005,8.005,0,0,0,1.37,4.381l-.358.275.337-.306,0,0a8.427,8.427,0,0,0,2.007,1.729,10.4,10.4,0,0,0,5.672,1.612c2.786,0,6.361-.98,10.756-4.071l.237.4-.253-.391.044-.035a14.682,14.682,0,0,0,2.338-2.462,8.711,8.711,0,0,0,1.945-5.068,6.107,6.107,0,0,0-.691-2.806,9.806,9.806,0,0,0-2.505-3l.266-.38-.216.417-.029-.018a13.952,13.952,0,0,0-6.546-1.836,8.9,8.9,0,0,0-4.273,1.042,10.676,10.676,0,0,0-4.008,4.007.415.415,0,0,1-.607.133.508.508,0,0,1-.121-.665,11.585,11.585,0,0,1,4.35-4.336,9.712,9.712,0,0,1,4.66-1.141,14.729,14.729,0,0,1,7.008,1.979l.05.036a10.731,10.731,0,0,1,2.737,3.3,7.142,7.142,0,0,1,.8,3.273,9.911,9.911,0,0,1-2.362,5.96,15.156,15.156,0,0,1-2.334,2.386l-.017.012c-4.5,3.168-8.252,4.223-11.229,4.223a11.211,11.211,0,0,1-6.245-1.828,9.038,9.038,0,0,1-2.111-1.865l-.021-.03A9.032,9.032,0,0,1,175.21,174a9.563,9.563,0,0,1,1.015-4.171,17.862,17.862,0,0,1,5.359-6.139.416.416,0,0,1,.6.153.507.507,0,0,1-.139.66" transform="translate(-163.224 -148.511)" fill="#1a1818"/>
  <g id="Group_2" data-name="Group 2" transform="translate(48.018 23.242)">
    <path id="Path_5" data-name="Path 5" d="M376.74,255.791V237.954a48.97,48.97,0,0,1,7.473-.517q4.149,0,5.909,1.383t1.76,4.638v12.334Zm9.708-4.176V243.29a1.338,1.338,0,0,0-.691-1.3,4.533,4.533,0,0,0-2.046-.363l-1.551.056v9.931Z" transform="translate(-376.74 -234.126)" fill="#fff"/>
    <path id="Path_6" data-name="Path 6" d="M475.568,237.652a49.715,49.715,0,0,1,5.022-.293,21.517,21.517,0,0,1,3.408.209,6.759,6.759,0,0,1,2.067.657,5.51,5.51,0,0,1,1.369,1.006,3.722,3.722,0,0,1,.824,1.39,8.284,8.284,0,0,1,.391,1.662,15.949,15.949,0,0,1,.1,1.962v11.482h-5.42V244.245a2.4,2.4,0,0,0-2.738-2.7,49.978,49.978,0,0,0-5.029.307Z" transform="translate(-457.898 -234.062)" fill="#fff"/>
    <path id="Path_7" data-name="Path 7" d="M568.878,222.5h9.107v3.311l-2.375,8.06.014-.014-1.522,6.733h-5.336l1.578-6.914,2.081-7h-8.968v-7.752h5.42Z" transform="translate(-530.074 -218.921)" fill="#fff"/>
    <path id="Path_8" data-name="Path 8" d="M670.1,238.921V245.5a9.374,9.374,0,0,1-.1,1.5,5.913,5.913,0,0,1-.426,1.376,4.465,4.465,0,0,1-2.794,2.347q2.668,4.219,3.995,6.286h-6.048l-4.9-8.157a3.108,3.108,0,0,0-.266,1.537v6.621h-5.406v-6.579a8.939,8.939,0,0,1,.112-1.495,5.75,5.75,0,0,1,.447-1.4,4.628,4.628,0,0,1,2.822-2.347q-1.774-2.78-3.995-6.272h6.034l3.6,6.118,1.285,2.011a3.835,3.835,0,0,0,.223-1.509v-6.621Z" transform="translate(-604.047 -235.345)" fill="#fff"/>
  </g>
  <g id="Group_3" data-name="Group 3" transform="translate(0.338 49.47)">
    <path id="Path_9" data-name="Path 9" d="M111.035,365.677q.655-.059,1.194-.059a5.61,5.61,0,0,1,.9.061,2.116,2.116,0,0,1,.613.187,1.525,1.525,0,0,1,.407.289,1.105,1.105,0,0,1,.246.407,2.292,2.292,0,0,1,.117.494,5.013,5.013,0,0,1,.03.594v3.666h-1.331v-3.67q0-1-1.1-1-.391,0-.9.041t-.831.085l-.313.043v-1A8.515,8.515,0,0,1,111.035,365.677Zm.359,5.638h-1.331v-3.579h1.331Z" transform="translate(-110.063 -365.618)" fill="#fff"/>
    <path id="Path_10" data-name="Path 10" d="M141.711,367.358a4.883,4.883,0,0,0-.318-1.657h1.27q.065.17.131.4l.117.465h.083c.011-.026.029-.06.052-.1a1.7,1.7,0,0,1,.176-.226,1.787,1.787,0,0,1,.315-.287,1.85,1.85,0,0,1,.476-.226,2.109,2.109,0,0,1,.678-.1,1.6,1.6,0,0,1,.685.144,1.363,1.363,0,0,1,.5.378,1.978,1.978,0,0,1,.311.57,4.215,4.215,0,0,1,.213,1.431v3.175H144V370.3h1.044v-2.009a2.911,2.911,0,0,0-.144-1.092,1.292,1.292,0,0,0-.165-.269.749.749,0,0,0-.635-.261.869.869,0,0,0-.389.093,1.088,1.088,0,0,0-.315.228,2,2,0,0,0-.357.487l-.043.1-.331,3.74h-1.3l.326-3.562Q141.711,367.553,141.711,367.358Z" transform="translate(-135.77 -365.618)" fill="#fff"/>
    <path id="Path_11" data-name="Path 11" d="M176.832,369.818V366.1h1.326V368.7l-.883,1.122Z" transform="translate(-164.894 -366.017)" fill="#fff"/>
    <path id="Path_12" data-name="Path 12" d="M194.181,365.618a2.007,2.007,0,0,1,1.092.261q.844.526.844,2.631a3.262,3.262,0,0,1-.624,2.146,2.2,2.2,0,0,1-1.79.746,2.121,2.121,0,0,1-1.631-.741,2.563,2.563,0,0,1-.492-.911,4.021,4.021,0,0,1-.178-1.239v-2.8h1.335v2.8a2.978,2.978,0,0,0,.246,1.372.813.813,0,0,0,.766.455.845.845,0,0,0,.776-.431,2.85,2.85,0,0,0,.257-1.4,4.657,4.657,0,0,0-.144-1.357.62.62,0,0,0-.47-.448,1.739,1.739,0,0,0-.387-.035l-.278.022v-.979A2.345,2.345,0,0,1,194.181,365.618Z" transform="translate(-176.859 -365.618)" fill="#fff"/>
    <path id="Path_13" data-name="Path 13" d="M227.1,366.1v2.009a1.8,1.8,0,0,1-.291,1.114,1.365,1.365,0,0,1-.331.294,1.877,1.877,0,0,1-.5.228l1.252,1.966h-1.509l-1.67-2.779a.515.515,0,0,0-.285.27,1.284,1.284,0,0,0-.085.491v2.018h-1.322v-2a3.353,3.353,0,0,1,.02-.385,1.9,1.9,0,0,1,.087-.372,1.182,1.182,0,0,1,.187-.359,1.37,1.37,0,0,1,.335-.3,1.916,1.916,0,0,1,.511-.229l-1.248-1.966h1.5l1.131,1.922.544.857a.509.509,0,0,0,.27-.27,1.3,1.3,0,0,0,.083-.487V366.1Z" transform="translate(-202.187 -366.017)" fill="#fff"/>
    <path id="Path_14" data-name="Path 14" d="M268.849,369.818V366.1h1.326V368.7l-.883,1.122Z" transform="translate(-240.459 -366.017)" fill="#fff"/>
    <path id="Path_15" data-name="Path 15" d="M280.719,365.709a13.048,13.048,0,0,1,1.442-.091,6.324,6.324,0,0,1,.994.061,2.117,2.117,0,0,1,.613.187,1.521,1.521,0,0,1,.407.289,1.109,1.109,0,0,1,.246.407,2.294,2.294,0,0,1,.117.494,5.029,5.029,0,0,1,.03.594v3.666h-1.331v-3.67q0-1-1.1-1a13.887,13.887,0,0,0-1.413.091Z" transform="translate(-250.207 -365.618)" fill="#fff"/>
    <path id="Path_16" data-name="Path 16" d="M308.816,367.358a4.884,4.884,0,0,0-.318-1.657h1.27q.065.17.131.4l.117.465h.083c.011-.026.029-.06.052-.1a1.7,1.7,0,0,1,.176-.226,1.79,1.79,0,0,1,.315-.287,1.851,1.851,0,0,1,.476-.226,2.109,2.109,0,0,1,.678-.1,1.6,1.6,0,0,1,.685.144,1.363,1.363,0,0,1,.5.378,1.979,1.979,0,0,1,.311.57,4.214,4.214,0,0,1,.213,1.431v3.175h-2.4V370.3h1.044v-2.009A2.911,2.911,0,0,0,312,367.2a1.289,1.289,0,0,0-.165-.269.749.749,0,0,0-.635-.261.869.869,0,0,0-.389.093,1.086,1.086,0,0,0-.315.228,2,2,0,0,0-.357.487l-.043.1-.331,3.74h-1.3l.326-3.562Q308.816,367.553,308.816,367.358Z" transform="translate(-272.998 -365.618)" fill="#fff"/>
    <path id="Path_17" data-name="Path 17" d="M345.579,371.714h-1.326V366.1h1.326Z" transform="translate(-302.382 -366.017)" fill="#fff"/>
    <path id="Path_18" data-name="Path 18" d="M359.455,371.315v-5.51a8.52,8.52,0,0,1,.972-.128q.655-.059,1.194-.059a5.61,5.61,0,0,1,.9.061,2.116,2.116,0,0,1,.613.187,1.521,1.521,0,0,1,.407.289,1.106,1.106,0,0,1,.246.407,2.29,2.29,0,0,1,.117.494,5,5,0,0,1,.03.594v3.666h-1.331v-3.67q0-1-1.1-1-.3,0-.718.031v4.644Z" transform="translate(-314.866 -365.618)" fill="#fff"/>
    <path id="Path_19" data-name="Path 19" d="M408.538,378.852a.928.928,0,0,1,.251-.7,1.2,1.2,0,0,1,1.448.006,1.087,1.087,0,0,1-.006,1.4,1.169,1.169,0,0,1-1.437,0A.935.935,0,0,1,408.538,378.852Z" transform="translate(-355.173 -375.711)" fill="#fff"/>
    <path id="Path_20" data-name="Path 20" d="M439.948,371.315v-5.51a8.522,8.522,0,0,1,.972-.128q.655-.059,1.246-.059a2.976,2.976,0,0,1,1.738.391,1.461,1.461,0,0,1,.528,1.257v4.049ZM443.1,370.3v-3.036a.5.5,0,0,0-.309-.518,2.235,2.235,0,0,0-.8-.109q-.3,0-.718.031V370.3Z" transform="translate(-380.967 -365.618)" fill="#fff"/>
    <path id="Path_21" data-name="Path 21" d="M472.347,369.818V366.1h1.326V368.7l-.883,1.122Z" transform="translate(-407.573 -366.017)" fill="#fff"/>
    <path id="Path_22" data-name="Path 22" d="M490.4,371.566v.148h-1.318v-.148a5.773,5.773,0,0,1,.113-.972,6.741,6.741,0,0,1,.278-1.076l.87-2.4h-3.283V366.1H491.8v.8l-.944,2.562A6.247,6.247,0,0,0,490.4,371.566Zm-2.1,2.292h-1.231v-5.5H488.3Z" transform="translate(-419.658 -366.017)" fill="#fff"/>
    <path id="Path_23" data-name="Path 23" d="M519.1,365.618a2.417,2.417,0,0,1,1.87.544,1.421,1.421,0,0,1,.313.639,4.137,4.137,0,0,1,.078.848V370.3H522v1.013h-4.488V370.3h2.518v-2.657q0-1-1.1-1a9.9,9.9,0,0,0-1.2.078l-.213.026V365.7A13.366,13.366,0,0,1,519.1,365.618Z" transform="translate(-444.667 -365.618)" fill="#fff"/>
    <path id="Path_24" data-name="Path 24" d="M549.316,366.1v.961a1.922,1.922,0,0,0-.383.2.84.84,0,0,0-.3.383,1.693,1.693,0,0,0-.083.579v3.483h-1.327V368.2a1.334,1.334,0,0,1,.067-.435.913.913,0,0,1,.163-.3.976.976,0,0,1,.357-.287l.069-.026v-.03h-3.049V366.1Z" transform="translate(-467.098 -366.017)" fill="#fff"/>
    <path id="Path_25" data-name="Path 25" d="M587.646,378.852a.928.928,0,0,1,.251-.7,1.2,1.2,0,0,1,1.448.006,1.087,1.087,0,0,1-.006,1.4,1.169,1.169,0,0,1-1.437,0A.935.935,0,0,1,587.646,378.852Z" transform="translate(-502.258 -375.711)" fill="#fff"/>
    <path id="Path_26" data-name="Path 26" d="M619.056,371.315v-5.51a8.53,8.53,0,0,1,.972-.128q.655-.059,1.246-.059a2.975,2.975,0,0,1,1.737.391,1.461,1.461,0,0,1,.528,1.257v4.049Zm3.153-1.013v-3.036a.5.5,0,0,0-.309-.518,2.234,2.234,0,0,0-.8-.109q-.3,0-.718.031V370.3Z" transform="translate(-528.052 -365.618)" fill="#fff"/>
    <path id="Path_27" data-name="Path 27" d="M651.455,369.818V366.1h1.326V368.7l-.883,1.122Z" transform="translate(-554.658 -366.017)" fill="#fff"/>
    <path id="Path_28" data-name="Path 28" d="M666.192,368.635l.348,1.779a1.453,1.453,0,0,0,.544-.629,3.139,3.139,0,0,0,.248-1.05l.231-2.627h1.313l-.218,2.435a4.554,4.554,0,0,1-.274,1.287,3.146,3.146,0,0,1-2.622,1.883l-1.779.261v-1.026l1.431-.213-1.227-4.632h1.322Z" transform="translate(-564.946 -366.017)" fill="#fff"/>
    <path id="Path_29" data-name="Path 29" d="M697.892,365.618a2.417,2.417,0,0,1,1.87.544,1.421,1.421,0,0,1,.313.639,4.132,4.132,0,0,1,.078.848V370.3h.643v1.013h-4.488V370.3h2.518v-2.657q0-1-1.1-1a9.9,9.9,0,0,0-1.2.078l-.213.026V365.7A13.367,13.367,0,0,1,697.892,365.618Z" transform="translate(-591.492 -365.618)" fill="#fff"/>
    <path id="Path_30" data-name="Path 30" d="M729,371.714H724.2V370.7h2.166l.992.061v-.017l-1.222-1.522-1.979-3.118h1.487l1.566,2.527a2.692,2.692,0,0,0,.387-1.3l.1-1.226h1.313l-.091,1.035a4.327,4.327,0,0,1-.2,1.1q-.07.187-.174.422a2.515,2.515,0,0,1-.67.852L729,370.949Z" transform="translate(-614.363 -366.017)" fill="#fff"/>
  </g>
</svg>
