<svg id="bi:arrow-left" xmlns="http://www.w3.org/2000/svg" width="17.77" height="11.424" viewBox="0 0 17.77 11.424">
  <g id="Group" transform="translate(0 0)">
    <path id="Vector" d="M0-16.791a.635.635,0,0,0,.186.449.635.635,0,0,0,.449.186H15.6l-3.994,3.993a.635.635,0,0,0-.138.206.635.635,0,0,0-.048.243.635.635,0,0,0,.048.243.635.635,0,0,0,.138.206.635.635,0,0,0,.206.138.635.635,0,0,0,.243.048.635.635,0,0,0,.243-.048.635.635,0,0,0,.206-.138l5.077-5.077a.635.635,0,0,0,.138-.206.635.635,0,0,0,.048-.243.635.635,0,0,0-.048-.243.635.635,0,0,0-.138-.206l-5.077-5.077a.635.635,0,0,0-.206-.138.635.635,0,0,0-.243-.048.635.635,0,0,0-.243.048.635.635,0,0,0-.206.138.635.635,0,0,0-.138.206.635.635,0,0,0-.048.243.635.635,0,0,0,.048.243.635.635,0,0,0,.138.206L15.6-17.426H.635a.635.635,0,0,0-.449.186A.635.635,0,0,0,0-16.791Z" transform="translate(0 22.503)"/>
  </g>
</svg>
