<svg id="bi:arrow-left" xmlns="http://www.w3.org/2000/svg" width="17.77" height="11.424" viewBox="0 0 17.77 11.424">
  <g id="Group" transform="translate(0 0)">
    <path id="Vector" d="M17.77-16.791a.635.635,0,0,1-.186.449.635.635,0,0,1-.449.186H2.168l3.994,3.993a.635.635,0,0,1,.138.206.635.635,0,0,1,.048.243.635.635,0,0,1-.048.243.635.635,0,0,1-.138.206.635.635,0,0,1-.206.138.635.635,0,0,1-.243.048.635.635,0,0,1-.243-.048.635.635,0,0,1-.206-.138L.186-16.342a.635.635,0,0,1-.138-.206A.635.635,0,0,1,0-16.791a.635.635,0,0,1,.048-.243.635.635,0,0,1,.138-.206l5.077-5.077a.635.635,0,0,1,.206-.138.635.635,0,0,1,.243-.048.635.635,0,0,1,.243.048.635.635,0,0,1,.206.138.635.635,0,0,1,.138.206.635.635,0,0,1,.048.243.635.635,0,0,1-.048.243.635.635,0,0,1-.138.206L2.168-17.426H17.135a.635.635,0,0,1,.449.186A.635.635,0,0,1,17.77-16.791Z" transform="translate(0 22.503)"/>
  </g>
</svg>
