<svg xmlns="http://www.w3.org/2000/svg" width="18.113" height="25.064" viewBox="0 0 18.113 25.064">
  <g id="Cart" transform="translate(-1756.366 -68.059)">
    <path id="bag" d="M83.509,24.565H69.993a2.048,2.048,0,0,1-2.039-2.227L69.2,8.213a2.036,2.036,0,0,1,2.039-1.867H72.5v-2.1a4.248,4.248,0,0,1,8.5,0v2.1h1.264a.409.409,0,0,1,0,.819H81V9.007a.409.409,0,1,1-.819,0V7.165H74.806a.409.409,0,1,1,0-.819h5.373v-2.1a3.429,3.429,0,0,0-6.858,0V9.007a.409.409,0,0,1-.819,0V7.165H71.239a1.222,1.222,0,0,0-1.223,1.12L68.769,22.41a1.227,1.227,0,0,0,1.223,1.336H83.509a1.227,1.227,0,0,0,1.223-1.336L83.486,8.285a.409.409,0,1,1,.816-.072l1.246,14.125A2.048,2.048,0,0,1,83.509,24.565ZM74.4,21.033H71.428a.409.409,0,1,0,0,.819H74.4a.409.409,0,1,0,0-.819Zm0-2.047H71.428a.409.409,0,1,0,0,.819H74.4a.409.409,0,1,0,0-.819Z" transform="translate(1688.672 68.309)" fill="#fff" stroke="#fff" stroke-width="0.5"/>
  </g>
</svg>
