<svg id="Group_87" data-name="Group 87" xmlns="http://www.w3.org/2000/svg" width="22.827" height="15.72" viewBox="0 0 22.827 15.72">
  <g id="Group_86" data-name="Group 86">
    <path id="Path_34" data-name="Path 34" d="M-721.406.605h-18.814a2.014,2.014,0,0,0-2.006,2.021V14.3a2.014,2.014,0,0,0,2.006,2.021h18.814A2.014,2.014,0,0,0-719.4,14.3V2.626A2.014,2.014,0,0,0-721.406.605Zm-1.605,11.561a.665.665,0,0,1-.943-.077l-3.86-4.572-2.668,1.533a.665.665,0,0,1-.663,0l-2.668-1.533-3.86,4.572a.665.665,0,0,1-.943.077.677.677,0,0,1-.076-.95l3.7-4.378-3.283-1.887a.676.676,0,0,1-.25-.919.666.666,0,0,1,.912-.251l6.8,3.909,6.8-3.909a.666.666,0,0,1,.912.251.676.676,0,0,1-.25.919l-3.283,1.887,3.7,4.378A.677.677,0,0,1-723.012,12.166Z" transform="translate(742.227 -0.605)"/>
  </g>
</svg>
