<svg xmlns="http://www.w3.org/2000/svg" width="26.363" height="24.215" viewBox="0 0 26.363 24.215">
  <path id="Path_582" data-name="Path 582" d="M271.182,174.758l-10.873-10.876a8.062,8.062,0,0,1-2.307-5.82,7.618,7.618,0,0,1,13.18-5.106,7.619,7.619,0,0,1,13.181,5.111,8.058,8.058,0,0,1-2.307,5.815Zm-12.213-16.68.231,0a6.951,6.951,0,0,0,1.956,4.952l10.026,10.029,10.026-10.029a6.95,6.95,0,0,0,1.957-4.93h0a6.414,6.414,0,0,0-6.469-6.363,6.57,6.57,0,0,0-5.052,2.494l-.464.566-.462-.566a6.562,6.562,0,0,0-5.049-2.494,6.408,6.408,0,0,0-6.469,6.33Z" transform="translate(-258 -150.543)" fill="#b3b3b3"/>
</svg>
