<svg id="instagram" xmlns="http://www.w3.org/2000/svg" width="18.706" height="18.709" viewBox="0 0 18.706 18.709">
  <path id="Path_572" data-name="Path 572" d="M18.659,5.5a6.836,6.836,0,0,0-.435-2.27A4.793,4.793,0,0,0,15.486.493a6.854,6.854,0,0,0-2.27-.435C12.215.011,11.9,0,9.357,0S6.5.011,5.5.055A6.839,6.839,0,0,0,3.231.49,4.565,4.565,0,0,0,1.572,1.572,4.606,4.606,0,0,0,.493,3.227,6.855,6.855,0,0,0,.059,5.5C.011,6.5,0,6.816,0,9.357s.011,2.858.055,3.856a6.836,6.836,0,0,0,.435,2.27A4.792,4.792,0,0,0,3.227,18.22a6.855,6.855,0,0,0,2.27.435c1,.044,1.316.055,3.856.055s2.858-.011,3.856-.055a6.835,6.835,0,0,0,2.27-.435,4.786,4.786,0,0,0,2.738-2.737,6.859,6.859,0,0,0,.435-2.27c.044-1,.055-1.316.055-3.856s0-2.858-.048-3.856Zm-1.685,7.639a5.128,5.128,0,0,1-.322,1.736,3.1,3.1,0,0,1-1.776,1.776,5.146,5.146,0,0,1-1.736.322c-.987.044-1.283.055-3.779.055s-2.8-.011-3.779-.055a5.126,5.126,0,0,1-1.736-.322,2.879,2.879,0,0,1-1.074-.7,2.909,2.909,0,0,1-.7-1.074,5.147,5.147,0,0,1-.322-1.736C1.707,12.156,1.7,11.86,1.7,9.364s.011-2.8.055-3.779a5.125,5.125,0,0,1,.322-1.736,2.844,2.844,0,0,1,.7-1.075,2.9,2.9,0,0,1,1.074-.7,5.15,5.15,0,0,1,1.736-.322C6.572,1.711,6.868,1.7,9.364,1.7s2.8.011,3.779.055a5.128,5.128,0,0,1,1.736.322,2.877,2.877,0,0,1,1.074.7,2.908,2.908,0,0,1,.7,1.075,5.149,5.149,0,0,1,.322,1.736c.044.987.055,1.283.055,3.779s-.011,2.789-.055,3.776Zm0,0" transform="translate(0 0)" fill="#292929"/>
  <path id="Path_573" data-name="Path 573" d="M4.806,0A4.806,4.806,0,1,0,9.613,4.806,4.807,4.807,0,0,0,4.806,0Zm0,7.924A3.118,3.118,0,1,1,7.924,4.806,3.118,3.118,0,0,1,4.806,7.924Zm0,0" transform="translate(4.55 4.55)" fill="#292929"/>
  <path id="Path_574" data-name="Path 574" d="M2.244,1.122A1.122,1.122,0,1,1,1.122,0,1.122,1.122,0,0,1,2.244,1.122Zm0,0" transform="translate(13.231 3.238)" fill="#292929"/>
</svg>
