<svg xmlns="http://www.w3.org/2000/svg" width="20.768" height="20.768" viewBox="0 0 20.768 20.768">
  <g id="Group_1240" data-name="Group 1240" transform="translate(-730 -1436)">
    <path id="Path_195" data-name="Path 195" d="M282.923,201a3.868,3.868,0,0,0-2.753,1.141l-3.029,3.029a3.868,3.868,0,0,0-1.14,2.753,3.778,3.778,0,0,0,.025.428.433.433,0,1,0,.86-.1,3.007,3.007,0,0,1,.867-2.474l3.029-3.029a3.029,3.029,0,0,1,4.283,4.283l-3.029,3.029a3.007,3.007,0,0,1-2.474.868.439.439,0,0,0-.478.382.432.432,0,0,0,.382.478,3.781,3.781,0,0,0,.428.025,3.868,3.868,0,0,0,2.753-1.14l3.029-3.029A3.894,3.894,0,0,0,282.923,201Z" transform="translate(463.951 1235)" fill="#4d4d4d"/>
    <path id="Path_196" data-name="Path 196" d="M263.314,227.084a.433.433,0,0,0-.382.478,3.007,3.007,0,0,1-.867,2.474l-3.029,3.029a3.029,3.029,0,0,1-4.283-4.283l3.029-3.029a3.007,3.007,0,0,1,2.474-.867.433.433,0,1,0,.1-.86,3.778,3.778,0,0,0-.428-.025,3.868,3.868,0,0,0-2.753,1.14l-3.029,3.029a3.894,3.894,0,0,0,5.507,5.507l3.029-3.029a3.873,3.873,0,0,0,1.116-3.181A.436.436,0,0,0,263.314,227.084Z" transform="translate(477 1221.951)" fill="#4d4d4d"/>
    <path id="Path_197" data-name="Path 197" d="M267.127,223.526a.432.432,0,0,0,.612,0l7.788-7.788a.433.433,0,0,0-.612-.612l-7.788,7.788A.432.432,0,0,0,267.127,223.526Z" transform="translate(469.058 1227.058)" fill="#4d4d4d"/>
  </g>
</svg>
