<svg xmlns="http://www.w3.org/2000/svg" width="12.695" height="18.704" viewBox="0 0 12.695 18.704">
  <g id="Group_5942" data-name="Group 5942" transform="translate(-1720.168 -890.033)">
    <g id="Group_294" data-name="Group 294" transform="translate(1720.168 890.033)">
      <g id="Group_292" data-name="Group 292" transform="translate(0)">
        <path id="Path_166" data-name="Path 166" d="M85.3,0a6.355,6.355,0,0,0-6.348,6.348c0,1.407.828,3.546,2.606,6.732,1.213,2.174,2.421,4.01,2.472,4.088l.873,1.323a.476.476,0,0,0,.794,0l.873-1.323c.05-.076,1.249-1.9,2.472-4.088,1.778-3.186,2.606-5.325,2.606-6.732A6.355,6.355,0,0,0,85.3,0Zm2.911,12.616c-1.206,2.16-2.385,3.952-2.435,4.027l-.476.721-.476-.721c-.05-.076-1.239-1.884-2.435-4.027-1.649-2.955-2.485-5.064-2.485-6.268a5.4,5.4,0,0,1,10.793,0C90.7,7.552,89.865,9.66,88.216,12.616Z" transform="translate(-78.957 0)" fill="#414141"/>
        <path id="Path_167" data-name="Path 167" d="M156.81,73.291a3.519,3.519,0,1,0,3.519,3.519A3.523,3.523,0,0,0,156.81,73.291Zm0,6.088a2.568,2.568,0,1,1,2.568-2.568A2.571,2.571,0,0,1,156.81,79.379Z" transform="translate(-150.463 -70.502)" fill="#414141"/>
      </g>
    </g>
  </g>
</svg>
