<svg xmlns="http://www.w3.org/2000/svg" width="43" height="42" viewBox="0 0 43 42">
  <g id="Group_6062" data-name="Group 6062" transform="translate(0.49 0)">
    <rect id="Rectangle_1990" data-name="Rectangle 1990" width="43" height="42" rx="21" transform="translate(-0.49 0)" fill="#93b6bb"/>
    <g id="Group_6030" data-name="Group 6030" transform="translate(14.238 11.31)">
      <g id="Group_294" data-name="Group 294" transform="translate(0)">
        <g id="Group_292" data-name="Group 292">
          <path id="Path_166" data-name="Path 166" d="M85.756,0a6.806,6.806,0,0,0-6.8,6.8c0,1.506.887,3.8,2.791,7.21,1.3,2.328,2.593,4.3,2.647,4.378L85.33,19.8a.509.509,0,0,0,.85,0l.935-1.417c.054-.082,1.338-2.032,2.647-4.378,1.9-3.412,2.791-5.7,2.791-7.21A6.806,6.806,0,0,0,85.756,0Zm3.118,13.512c-1.291,2.314-2.555,4.233-2.608,4.313l-.51.773-.51-.772c-.054-.081-1.327-2.018-2.608-4.314-1.766-3.165-2.662-5.424-2.662-6.713a5.78,5.78,0,0,1,11.56,0C91.535,8.088,90.64,10.347,88.873,13.512Z" transform="translate(-78.957 0)" fill="#fff"/>
          <path id="Path_167" data-name="Path 167" d="M157.06,73.291a3.769,3.769,0,1,0,3.769,3.769A3.774,3.774,0,0,0,157.06,73.291Zm0,6.52a2.751,2.751,0,1,1,2.751-2.751A2.754,2.754,0,0,1,157.06,79.811Z" transform="translate(-150.262 -70.304)" fill="#fff"/>
        </g>
      </g>
    </g>
  </g>
</svg>
