<svg xmlns="http://www.w3.org/2000/svg" width="16.531" height="15.689" viewBox="0 0 16.531 15.689">
  <path id="Path_1203" data-name="Path 1203" d="M664.715,13.452a6.031,6.031,0,0,1,1.468-6,.456.456,0,0,1,.233-.126c.913-.178,1.51-.141,1.775.126a13.058,13.058,0,0,1,1.725,3.54c0,.613-.3,1.153-1.122,2.009a6.106,6.106,0,0,0,2.213,2.823,10.943,10.943,0,0,0,2.8,1.822,6.435,6.435,0,0,0,1.655-1.863.437.437,0,0,1,.057-.07,1.026,1.026,0,0,1,1.2-.087,9.2,9.2,0,0,1,.9.559c.52.345,1.237.817,2.076,1.288a.457.457,0,0,1,.22.481c0,.038-.005.076-.009.113a4.2,4.2,0,0,1-4.554,3.823,9.476,9.476,0,0,1-1.412-.114C669.529,21.108,666.069,16.993,664.715,13.452Z" transform="translate(-663.901 -6.722)" fill="none" stroke="#414141" stroke-miterlimit="10" stroke-width="1"/>
</svg>
