<svg xmlns="http://www.w3.org/2000/svg" width="20.554" height="22.157" viewBox="0 0 20.554 22.157">
  <g id="Group_383" data-name="Group 383" transform="translate(0.15 0.15)">
    <path id="Path_143" data-name="Path 143" d="M53.866,51.187a6.091,6.091,0,1,1,6.11-6.091A6.107,6.107,0,0,1,53.866,51.187Zm0-11.34A5.249,5.249,0,1,0,59.131,45.1,5.263,5.263,0,0,0,53.866,39.847Z" transform="translate(-43.739 -39.005)" stroke="#000" stroke-width="0.3"/>
    <path id="Path_144" data-name="Path 144" d="M60.085,70.766a.422.422,0,0,1-.422-.421,9.282,9.282,0,0,0-18.564,0,.422.422,0,0,1-.845,0,10.127,10.127,0,0,1,20.254,0A.422.422,0,0,1,60.085,70.766Z" transform="translate(-40.254 -48.909)" stroke="#000" stroke-width="0.3"/>
  </g>
</svg>
