<svg xmlns="http://www.w3.org/2000/svg" width="183.64" height="166.136" viewBox="0 0 183.64 166.136">
  <g id="Group_6609" data-name="Group 6609" transform="translate(-841.525 -653.462)">
    <g id="Group_6594" data-name="Group 6594" transform="translate(868.268 653.462)">
      <path id="Path_1231" data-name="Path 1231" d="M1450.139,789.24l7.24,12.034s14.677-6.176,21.3,6.97c7.967,15.823-2.568,19.6-2.342,22.227.233,2.695,6.865,12.7,6.865,12.7l86.29-57.654s2.584.948.858-1.921a82.822,82.822,0,0,0-5.8-7.691s-8.546.912-12.005-1.069-7.205-7.017-8.593-10.938c-2.246-6.345,5.408-16.51,4.767-17.575s-6.63-12.93-6.63-12.93l-6.452,4.385Z" transform="translate(-1444.057 -729.083)" fill="#93b6bb"/>
      <path id="Path_1232" data-name="Path 1232" d="M1863.8,1417.58a1.72,1.72,0,0,1-1.477-.834l-2.64-4.388a1.722,1.722,0,1,1,2.95-1.775l2.64,4.388a1.722,1.722,0,0,1-1.474,2.609Z" transform="translate(-1831.276 -1368.958)" fill="#272f2f"/>
      <path id="Path_1233" data-name="Path 1233" d="M1989.462,1626.462a1.72,1.72,0,0,1-1.477-.834l-2.64-4.388a1.722,1.722,0,0,1,2.95-1.775l2.64,4.388a1.722,1.722,0,0,1-1.474,2.609Z" transform="translate(-1950.163 -1566.575)" fill="#272f2f"/>
      <path id="Path_1234" data-name="Path 1234" d="M2115.127,1835.344a1.721,1.721,0,0,1-1.477-.834l-2.64-4.388a1.722,1.722,0,0,1,2.95-1.775l2.64,4.388a1.722,1.722,0,0,1-1.474,2.609Z" transform="translate(-2069.051 -1764.191)" fill="#272f2f"/>
      <path id="Path_1235" data-name="Path 1235" d="M2240.791,2044.226a1.721,1.721,0,0,1-1.477-.834l-2.64-4.388a1.722,1.722,0,0,1,2.95-1.775l2.64,4.388a1.722,1.722,0,0,1-1.474,2.609Z" transform="translate(-2187.938 -1961.806)" fill="#272f2f"/>
      <path id="Path_1236" data-name="Path 1236" d="M2366.457,2253.107a1.721,1.721,0,0,1-1.477-.834l-2.64-4.388a1.722,1.722,0,0,1,2.951-1.775l2.64,4.388a1.722,1.722,0,0,1-1.474,2.609Z" transform="translate(-2306.825 -2159.422)" fill="#272f2f"/>
      <g id="Group_6591" data-name="Group 6591" transform="translate(53.531 26.009)">
        <path id="Path_1237" data-name="Path 1237" d="M2635.178,1181a2.154,2.154,0,0,1-2.132-2.46l5.926-41a2.152,2.152,0,1,1,4.26.616l-5.926,41A2.153,2.153,0,0,1,2635.178,1181Z" transform="translate(-2616.674 -1135.695)" fill="#272f2f"/>
        <path id="Path_1238" data-name="Path 1238" d="M2336.885,1380.26a7.014,7.014,0,0,1-1.7-.209,6.932,6.932,0,1,1,1.7.209Zm-.017-9.647a2.678,2.678,0,1,0,.649.08A2.686,2.686,0,0,0,2336.868,1370.613Z" transform="translate(-2329.896 -1353.87)" fill="#272f2f"/>
        <path id="Path_1239" data-name="Path 1239" d="M2871.886,1491.7a7.019,7.019,0,0,1-1.7-.209,6.935,6.935,0,1,1,1.7.209Zm-.017-9.647a2.679,2.679,0,1,0,.649.08A2.654,2.654,0,0,0,2871.869,1482.055Z" transform="translate(-2836.043 -1459.301)" fill="#272f2f"/>
      </g>
      <path id="Path_1240" data-name="Path 1240" d="M1986.185,1637.981l89.073-53.587,1.216,5.433-87.116,53.207Z" transform="translate(-1951.192 -1534.184)" fill="#678f95"/>
      <g id="Group_6592" data-name="Group 6592" transform="translate(0 22.05)">
        <path id="Path_1241" data-name="Path 1241" d="M1347.124,1116.317a2.581,2.581,0,0,1-2.215-1.251l-6.294-10.461a8.716,8.716,0,0,1,2.972-11.948l49.859-30a2.582,2.582,0,1,1,2.663,4.426l-49.859,30a3.545,3.545,0,0,0-1.209,4.859l6.294,10.461a2.583,2.583,0,0,1-2.21,3.914Z" transform="translate(-1337.371 -1062.29)" fill="#272f2f"/>
        <path id="Path_1242" data-name="Path 1242" d="M1753.575,2110.132a8.764,8.764,0,0,1-2.117-.261,8.649,8.649,0,0,1-5.359-3.961l-5.82-9.674,4.426-2.663,5.82,9.674a3.54,3.54,0,0,0,4.859,1.209l49.859-30,2.663,4.426-49.859,30A8.654,8.654,0,0,1,1753.575,2110.132Z" transform="translate(-1718.549 -2019.87)" fill="#272f2f"/>
        <path id="Path_1243" data-name="Path 1243" d="M1487.04,1964.018a2.583,2.583,0,0,1-1.364-4.778,11.185,11.185,0,0,0-11.531-19.166,2.582,2.582,0,1,1-2.6-4.461,16.35,16.35,0,0,1,16.855,28.017A2.57,2.57,0,0,1,1487.04,1964.018Z" transform="translate(-1463.094 -1886.4)" fill="#272f2f"/>
      </g>
      <g id="Group_6593" data-name="Group 6593" transform="translate(38.163 0)">
        <path id="Path_1244" data-name="Path 1244" d="M2047.543,1148.447a2.583,2.583,0,0,1-1.334-4.8l7.821-4.706a2.583,2.583,0,0,1,2.663,4.426l-7.821,4.705A2.573,2.573,0,0,1,2047.543,1148.447Z" transform="translate(-2044.957 -1112.412)" fill="#272f2f"/>
        <path id="Path_1245" data-name="Path 1245" d="M2445.673,942.967a2.583,2.583,0,0,1-1.334-4.8l4.646-2.8a2.583,2.583,0,1,1,2.663,4.426L2447,942.6A2.57,2.57,0,0,1,2445.673,942.967Z" transform="translate(-2421.615 -919.821)" fill="#272f2f"/>
        <path id="Path_1246" data-name="Path 1246" d="M2706.327,672.054a2.581,2.581,0,0,1-2.215-1.252l-6.293-10.462a3.545,3.545,0,0,0-4.86-1.209l-15.982,9.615a2.582,2.582,0,1,1-2.663-4.426l15.982-9.615a8.716,8.716,0,0,1,11.948,2.972l6.294,10.462a2.583,2.583,0,0,1-2.21,3.914Z" transform="translate(-2639.186 -653.462)" fill="#272f2f"/>
        <path id="Path_1247" data-name="Path 1247" d="M2675.628,1414.627l-2.663-4.426,49.859-30a3.54,3.54,0,0,0,1.209-4.859l-5.82-9.674,4.426-2.663,5.82,9.674a8.705,8.705,0,0,1-2.972,11.948Z" transform="translate(-2639.094 -1324.741)" fill="#272f2f"/>
        <path id="Path_1248" data-name="Path 1248" d="M3137.517,933.025a16.448,16.448,0,0,1-4.074-.515,16.35,16.35,0,0,1-4.572-29.733,2.583,2.583,0,0,1,2.722,4.389,11.185,11.185,0,0,0,11.531,19.166,2.583,2.583,0,1,1,2.6,4.462A16.255,16.255,0,0,1,3137.517,933.025Z" transform="translate(-3063.094 -888.962)" fill="#272f2f"/>
      </g>
    </g>
    <g id="Group_6595" data-name="Group 6595" transform="translate(847.039 690.891)">
      <path id="Path_1249" data-name="Path 1249" d="M947.221,1351.689a.7.7,0,0,1-.507-.214l-2.746-2.829a.707.707,0,1,1,1.015-.985l2.746,2.829a.707.707,0,0,1-.507,1.2Z" transform="translate(-943.768 -1347.446)" fill="#231f20"/>
      <path id="Path_1250" data-name="Path 1250" d="M1044.365,1351.689a.707.707,0,0,1-.507-1.2l2.746-2.829a.707.707,0,1,1,1.015.985l-2.746,2.829A.7.7,0,0,1,1044.365,1351.689Z" transform="translate(-1038.271 -1347.446)" fill="#231f20"/>
      <path id="Path_1251" data-name="Path 1251" d="M1044.365,1454.849a.705.705,0,0,1,.507.214l2.746,2.829a.707.707,0,0,1-1.015.985l-2.746-2.829a.707.707,0,0,1,.507-1.2Z" transform="translate(-1038.271 -1449.056)" fill="#231f20"/>
      <path id="Path_1252" data-name="Path 1252" d="M947.221,1454.849a.707.707,0,0,1,.507,1.2l-2.746,2.829a.707.707,0,0,1-1.015-.985l2.746-2.829A.706.706,0,0,1,947.221,1454.849Z" transform="translate(-943.768 -1449.056)" fill="#231f20"/>
    </g>
    <g id="Group_6596" data-name="Group 6596" transform="translate(1003.768 791.123)">
      <path id="Path_1253" data-name="Path 1253" d="M3853.229,3210.215a.724.724,0,0,1-.52-.22l-2.817-2.9a.725.725,0,1,1,1.041-1.01l2.817,2.9a.725.725,0,0,1-.521,1.231Z" transform="translate(-3849.687 -3205.862)" fill="#231f20"/>
      <path id="Path_1254" data-name="Path 1254" d="M3952.887,3210.215a.725.725,0,0,1-.52-1.231l2.817-2.9a.725.725,0,1,1,1.041,1.01l-2.817,2.9A.725.725,0,0,1,3952.887,3210.215Z" transform="translate(-3946.635 -3205.862)" fill="#231f20"/>
      <path id="Path_1255" data-name="Path 1255" d="M3952.887,3316.044a.725.725,0,0,1,.521.22l2.817,2.9a.725.725,0,0,1-1.041,1.01l-2.817-2.9a.725.725,0,0,1,.52-1.23Z" transform="translate(-3946.635 -3310.102)" fill="#231f20"/>
      <path id="Path_1256" data-name="Path 1256" d="M3853.229,3316.044a.725.725,0,0,1,.521,1.23l-2.817,2.9a.725.725,0,0,1-1.041-1.01l2.817-2.9A.723.723,0,0,1,3853.229,3316.044Z" transform="translate(-3849.687 -3310.102)" fill="#231f20"/>
    </g>
    <g id="Group_6597" data-name="Group 6597" transform="translate(1015.674 765.265)">
      <circle id="Ellipse_145" data-name="Ellipse 145" cx="3.526" cy="3.526" r="3.526" transform="translate(1.016 8.358) rotate(-76.811)" fill="#93b6bb"/>
      <path id="Path_1257" data-name="Path 1257" d="M4074.505,2734.551a4.067,4.067,0,1,1,4.067-4.067A4.071,4.071,0,0,1,4074.505,2734.551Zm0-7.052a2.985,2.985,0,1,0,2.985,2.985A2.988,2.988,0,0,0,4074.505,2727.5Z" transform="translate(-4070.438 -2726.417)" fill="#231f20"/>
    </g>
    <g id="Group_6598" data-name="Group 6598" transform="translate(841.525 724.831)">
      <circle id="Ellipse_146" data-name="Ellipse 146" cx="4.39" cy="4.39" r="4.39" transform="translate(1.113 10.147) rotate(-74.042)" fill="#93b6bb"/>
      <path id="Path_1258" data-name="Path 1258" d="M846.588,1986.859a5.063,5.063,0,1,1,5.063-5.063A5.069,5.069,0,0,1,846.588,1986.859Zm0-8.78a3.717,3.717,0,1,0,3.717,3.717A3.721,3.721,0,0,0,846.588,1978.079Z" transform="translate(-841.525 -1976.732)" fill="#231f20"/>
    </g>
    <g id="Group_6599" data-name="Group 6599" transform="translate(997.301 724.953)">
      <path id="Path_1259" data-name="Path 1259" d="M3932.728,1982.134h-9.212a1.57,1.57,0,0,1,0-3.141h9.212a1.57,1.57,0,0,1,0,3.141Z" transform="translate(-3911.581 -1978.993)" fill="#231f20"/>
      <path id="Path_1260" data-name="Path 1260" d="M3734.705,1982.134h-3.35a1.57,1.57,0,0,1,0-3.141h3.35a1.57,1.57,0,0,1,0,3.141Z" transform="translate(-3729.785 -1978.993)" fill="#231f20"/>
    </g>
    <g id="Group_6600" data-name="Group 6600" transform="translate(905.476 811.007)">
      <path id="Path_1261" data-name="Path 1261" d="M2230.2,3577.671h-9.213a1.57,1.57,0,0,1,0-3.141h9.213a1.57,1.57,0,0,1,0,3.141Z" transform="translate(-2209.05 -3574.53)" fill="#231f20"/>
      <path id="Path_1262" data-name="Path 1262" d="M2032.174,3577.671h-3.35a1.57,1.57,0,0,1,0-3.141h3.35a1.57,1.57,0,0,1,0,3.141Z" transform="translate(-2027.254 -3574.53)" fill="#231f20"/>
    </g>
    <g id="Group_6603" data-name="Group 6603" transform="translate(1000.897 681.813)">
      <g id="Group_6601" data-name="Group 6601" transform="translate(3.19 0)">
        <circle id="Ellipse_147" data-name="Ellipse 147" cx="3.6" cy="3.6" r="3.6" transform="matrix(0.973, -0.23, 0.23, 0.973, 0, 1.654)" fill="#231f20"/>
        <path id="Path_1263" data-name="Path 1263" d="M3864.575,1192.139a.467.467,0,0,1-.437-.3,4.543,4.543,0,0,0-3.331-3.33.467.467,0,0,1,0-.873,4.543,4.543,0,0,0,3.331-3.33.467.467,0,0,1,.437-.3h0a.467.467,0,0,1,.437.3,4.543,4.543,0,0,0,3.331,3.33.468.468,0,0,1,0,.873,4.543,4.543,0,0,0-3.331,3.33A.468.468,0,0,1,3864.575,1192.139Zm-2.408-4.068a2.408,2.408,0,1,0,4.816,0,2.408,2.408,0,1,0-4.816,0Z" transform="translate(-3860.243 -1183.74)" fill="#231f20"/>
      </g>
      <g id="Group_6602" data-name="Group 6602" transform="translate(0 8.629)">
        <circle id="Ellipse_148" data-name="Ellipse 148" cx="2.214" cy="2.214" r="2.214" transform="translate(0 3.132) rotate(-45)" fill="#231f20"/>
        <path id="Path_1264" data-name="Path 1264" d="M3810.649,1355.793a.288.288,0,0,1-.269-.185,2.794,2.794,0,0,0-2.048-2.048.288.288,0,0,1,0-.537,2.794,2.794,0,0,0,2.048-2.048.287.287,0,0,1,.269-.185h0a.287.287,0,0,1,.268.185,2.8,2.8,0,0,0,2.048,2.048.287.287,0,0,1,0,.537,2.8,2.8,0,0,0-2.048,2.048A.287.287,0,0,1,3810.649,1355.793Zm-1.481-2.5a1.481,1.481,0,1,0,2.962,0,1.481,1.481,0,1,0-2.962,0Z" transform="translate(-3807.517 -1350.16)" fill="#231f20"/>
      </g>
    </g>
    <g id="Group_6604" data-name="Group 6604" transform="translate(901.591 654.633)">
      <circle id="Ellipse_149" data-name="Ellipse 149" cx="4.908" cy="4.908" r="4.908" transform="translate(0 4.252) rotate(-25.67)" fill="#231f20"/>
      <path id="Path_1265" data-name="Path 1265" d="M1979.393,704.892a.637.637,0,0,1-.595-.41c-1.043-2.734-1.806-3.5-4.54-4.54a.637.637,0,0,1,0-1.19c2.734-1.042,3.5-1.806,4.54-4.54a.637.637,0,0,1,.595-.41h0a.637.637,0,0,1,.6.41c1.042,2.734,1.806,3.5,4.54,4.54a.637.637,0,0,1,0,1.19c-2.734,1.042-3.5,1.806-4.54,4.54A.637.637,0,0,1,1979.393,704.892Zm-3.283-5.545a3.283,3.283,0,1,0,6.566,0,3.283,3.283,0,1,0-6.566,0Z" transform="translate(-1972.843 -692.797)" fill="#231f20"/>
    </g>
    <path id="Path_1266" data-name="Path 1266" d="M1757.894,983.1a2.926,2.926,0,1,1,2.926-2.926A2.93,2.93,0,0,1,1757.894,983.1Zm0-4.131a1.2,1.2,0,1,0,1.2,1.2A1.206,1.206,0,0,0,1757.894,978.965Z" transform="translate(-864.176 -306.318)" fill="#231f20"/>
    <path id="Path_1267" data-name="Path 1267" d="M883,2781.095a2.927,2.927,0,1,1,2.926-2.927A2.93,2.93,0,0,1,883,2781.095Zm0-4.131a1.2,1.2,0,1,0,1.2,1.2A1.206,1.206,0,0,0,883,2776.964Z" transform="translate(-36.471 -2007.344)" fill="#231f20"/>
    <path id="Path_1268" data-name="Path 1268" d="M3481.592,3595.565a3.941,3.941,0,1,1,3.941-3.941A3.946,3.946,0,0,1,3481.592,3595.565Zm0-6.16a2.219,2.219,0,1,0,2.219,2.219A2.221,2.221,0,0,0,3481.592,3589.406Z" transform="translate(-2493.949 -2775.968)" fill="#231f20"/>
    <g id="Group_6608" data-name="Group 6608" transform="translate(864.259 733.911)">
      <path id="Path_1269" data-name="Path 1269" d="M1423.394,2192.989v14.359s17.073,2.325,15.875,17.331c-1.441,18.063-13.332,15.821-14.586,18.24-1.289,2.484-.721,14.745-.721,14.745l110.581-.7s3.586-2.139,3.586-5.562a80.067,80.067,0,0,0-1.086-9.794s-8.442-3.706-10.547-7.264-4.253-10.5-1.868-14.113,14.24-10.345,14.24-11.615-1.642-14.527-1.642-14.527l-5.729-1.125Z" transform="translate(-1414.746 -2190.384)" fill="#93b6bb"/>
      <path id="Path_1270" data-name="Path 1270" d="M1947.964,2210.684a1.721,1.721,0,0,1-1.722-1.722v-5.236a1.722,1.722,0,0,1,3.443,0v5.236A1.721,1.721,0,0,1,1947.964,2210.684Z" transform="translate(-1909.394 -2198.935)" fill="#272f2f"/>
      <path id="Path_1271" data-name="Path 1271" d="M1947.964,2459.93a1.722,1.722,0,0,1-1.722-1.721v-5.236a1.722,1.722,0,1,1,3.443,0v5.236A1.722,1.722,0,0,1,1947.964,2459.93Z" transform="translate(-1909.394 -2434.738)" fill="#272f2f"/>
      <path id="Path_1272" data-name="Path 1272" d="M1947.964,2709.177a1.722,1.722,0,0,1-1.722-1.722v-5.236a1.722,1.722,0,0,1,3.443,0v5.236A1.722,1.722,0,0,1,1947.964,2709.177Z" transform="translate(-1909.394 -2670.541)" fill="#272f2f"/>
      <path id="Path_1273" data-name="Path 1273" d="M1947.964,2958.422a1.722,1.722,0,0,1-1.722-1.722v-5.236a1.722,1.722,0,0,1,3.443,0v5.236A1.722,1.722,0,0,1,1947.964,2958.422Z" transform="translate(-1909.394 -2906.344)" fill="#272f2f"/>
      <path id="Path_1274" data-name="Path 1274" d="M1947.964,3207.669a1.722,1.722,0,0,1-1.722-1.722v-5.236a1.722,1.722,0,0,1,3.443,0v5.236A1.722,1.722,0,0,1,1947.964,3207.669Z" transform="translate(-1909.394 -3142.148)" fill="#272f2f"/>
      <g id="Group_6605" data-name="Group 6605" transform="translate(58 13.811)">
        <path id="Path_1275" data-name="Path 1275" d="M2390.013,2439.854a2.152,2.152,0,0,1-1.658-3.522l28.4-34.393a2.152,2.152,0,0,1,3.319,2.74l-28.4,34.393A2.148,2.148,0,0,1,2390.013,2439.854Z" transform="translate(-2385.196 -2401.156)" fill="#272f2f"/>
        <path id="Path_1276" data-name="Path 1276" d="M2345.8,2435.156a7.322,7.322,0,1,1,7.375-7.322A7.357,7.357,0,0,1,2345.8,2435.156Zm0-10.34a3.018,3.018,0,1,0,3.071,3.018A3.048,3.048,0,0,0,2345.8,2424.816Z" transform="translate(-2338.425 -2419.468)" fill="#272f2f"/>
        <path id="Path_1277" data-name="Path 1277" d="M2780.191,2833.289a7.322,7.322,0,1,1,7.375-7.322A7.357,7.357,0,0,1,2780.191,2833.289Zm0-10.34a3.018,3.018,0,1,0,3.071,3.018A3.048,3.048,0,0,0,2780.191,2822.949Z" transform="translate(-2749.387 -2796.128)" fill="#272f2f"/>
      </g>
      <path id="Path_1278" data-name="Path 1278" d="M1431.623,3279.454h112.61l-1.905,5.4-110.581.7Z" transform="translate(-1422.531 -3218.272)" fill="#678f95"/>
      <g id="Group_6606" data-name="Group 6606" transform="translate(0)">
        <path id="Path_1279" data-name="Path 1279" d="M1268.219,2166.409h-5.165v-12.483a9.045,9.045,0,0,1,9.216-8.844H1335.3v5.165H1272.27a3.883,3.883,0,0,0-4.051,3.679Z" transform="translate(-1263.054 -2145.083)" fill="#272f2f"/>
        <path id="Path_1280" data-name="Path 1280" d="M1335.3,3082.825H1272.27a9.046,9.046,0,0,1-9.216-8.843v-11.543h5.165v11.543a3.882,3.882,0,0,0,4.051,3.678H1335.3Z" transform="translate(-1263.054 -3012.961)" fill="#272f2f"/>
        <path id="Path_1281" data-name="Path 1281" d="M1265.628,2525.931a2.583,2.583,0,0,1-.032-5.165c6.7-.086,12.159-5.241,12.159-11.492s-5.455-11.407-12.159-11.493a2.583,2.583,0,0,1,.032-5.165h.034a17.842,17.842,0,0,1,12.159,4.9,16.1,16.1,0,0,1,0,23.513,17.841,17.841,0,0,1-12.159,4.9Z" transform="translate(-1263.046 -2473.872)" fill="#272f2f"/>
      </g>
      <g id="Group_6607" data-name="Group 6607" transform="translate(53.716)">
        <path id="Path_1282" data-name="Path 1282" d="M2331.25,2166.409h-5.165v-12.483a3.883,3.883,0,0,0-4.051-3.679H2259v-5.165h63.033a9.045,9.045,0,0,1,9.216,8.844Z" transform="translate(-2259.001 -2145.083)" fill="#272f2f"/>
        <path id="Path_1283" data-name="Path 1283" d="M2322.034,3082.825H2259v-5.166h63.033a3.882,3.882,0,0,0,4.051-3.678v-11.543h5.165v11.543A9.046,9.046,0,0,1,2322.034,3082.825Z" transform="translate(-2259.001 -3012.961)" fill="#272f2f"/>
        <path id="Path_1284" data-name="Path 1284" d="M3247.4,2525.931h-.034a17.842,17.842,0,0,1-12.159-4.9,16.1,16.1,0,0,1,0-23.513,17.841,17.841,0,0,1,12.159-4.9h.034a2.583,2.583,0,0,1,.032,5.165c-6.7.086-12.159,5.242-12.159,11.493s5.454,11.407,12.159,11.492a2.583,2.583,0,0,1-.032,5.165Z" transform="translate(-3177.735 -2473.872)" fill="#272f2f"/>
      </g>
    </g>
  </g>
</svg>
