<svg xmlns="http://www.w3.org/2000/svg" xmlns:xlink="http://www.w3.org/1999/xlink" width="223.42" height="51.311" viewBox="0 0 223.42 51.311">
  <defs>
    <clipPath id="clip-path">
      <rect id="Rectangle_76" data-name="Rectangle 76" width="223.42" height="51.311" stroke="#707070" stroke-width="1"/>
    </clipPath>
  </defs>
  <g id="Group_6793" data-name="Group 6793" style="isolation: isolate">
    <g id="Group_4627" data-name="Group 4627" transform="translate(0 0)" clip-path="url(#clip-path)">
      <path id="Path_280" data-name="Path 280" d="M378.018,622.752h3.322c1.139,0,1.817.6,1.817,1.611A1.611,1.611,0,0,1,381.78,626l1.452,2.548h-.8l-1.452-2.536h-2.247v2.536h-.719Zm3.278,2.579c.731,0,1.108-.334,1.108-.945s-.377-.969-1.077-.969h-2.591v1.913Z" transform="translate(-344.074 -618.099)"/>
      <path id="Path_281" data-name="Path 281" d="M378.018,622.752h3.322c1.139,0,1.817.6,1.817,1.611A1.611,1.611,0,0,1,381.78,626l1.452,2.548h-.8l-1.452-2.536h-2.247v2.536h-.719Zm3.278,2.579c.731,0,1.108-.334,1.108-.945s-.377-.969-1.077-.969h-2.591v1.913Z" transform="translate(-344.074 -618.099)"/>
      <path id="Path_282" data-name="Path 282" d="M381.986,626.5c0,1.2.344,1.517,1.666,1.517s1.668-.312,1.668-1.517v-3.752h.719V626.7c0,1.42-.675,2-2.387,2s-2.387-.579-2.387-2v-3.944h.721Z" transform="translate(-339.516 -618.099)"/>
      <path id="Path_283" data-name="Path 283" d="M381.986,626.5c0,1.2.344,1.517,1.666,1.517s1.668-.312,1.668-1.517v-3.752h.719V626.7c0,1.42-.675,2-2.387,2s-2.387-.579-2.387-2v-3.944h.721Z" transform="translate(-339.516 -618.099)"/>
      <path id="Path_284" data-name="Path 284" d="M384.735,627.128a4.291,4.291,0,0,0,2.591.978c1.106,0,1.805-.526,1.805-1.214,0-.529-.449-.957-1.353-1.034a7.469,7.469,0,0,1-2.387-.365,1.3,1.3,0,0,1-.829-1.192c0-.894.872-1.6,2.247-1.6a4.7,4.7,0,0,1,2.774.947l-.418.6a3.7,3.7,0,0,0-2.344-.87c-.916,0-1.507.409-1.507.892a.621.621,0,0,0,.281.517c.493.375,1.322.291,2.387.409,1.214.14,1.913.839,1.913,1.719,0,1-.925,1.86-2.56,1.86a4.734,4.734,0,0,1-3.019-1.019Z" transform="translate(-335.232 -618.174)"/>
      <path id="Path_285" data-name="Path 285" d="M384.735,627.128a4.291,4.291,0,0,0,2.591.978c1.106,0,1.805-.526,1.805-1.214,0-.529-.449-.957-1.353-1.034a7.469,7.469,0,0,1-2.387-.365,1.3,1.3,0,0,1-.829-1.192c0-.894.872-1.6,2.247-1.6a4.7,4.7,0,0,1,2.774.947l-.418.6a3.7,3.7,0,0,0-2.344-.87c-.916,0-1.507.409-1.507.892a.621.621,0,0,0,.281.517c.493.375,1.322.291,2.387.409,1.214.14,1.913.839,1.913,1.719,0,1-.925,1.86-2.56,1.86a4.734,4.734,0,0,1-3.019-1.019Z" transform="translate(-335.232 -618.174)"/>
      <path id="Path_286" data-name="Path 286" d="M389.687,623.418h-2.44v-.666h5.6v.666h-2.439v5.127h-.721Z" transform="translate(-331.12 -618.098)"/>
      <path id="Path_287" data-name="Path 287" d="M389.687,623.418h-2.44v-.666h5.6v.666h-2.439v5.127h-.721Z" transform="translate(-331.12 -618.098)"/>
      <path id="Path_288" data-name="Path 288" d="M390.333,622.752h4.557v.666h-3.836v1.7h2.322v.666h-2.322v2.1h4.074v.668h-4.8Z" transform="translate(-326.787 -618.099)"/>
      <path id="Path_289" data-name="Path 289" d="M390.333,622.752h4.557v.666h-3.836v1.7h2.322v.666h-2.322v2.1h4.074v.668h-4.8Z" transform="translate(-326.787 -618.099)"/>
      <path id="Path_290" data-name="Path 290" d="M398.928,625.665a2.777,2.777,0,0,1-3.043,2.88H393.4v-5.793h2.483a2.823,2.823,0,0,1,3.043,2.913m-4.8-2.247v4.461h1.762a2.1,2.1,0,0,0,2.3-2.226,2.134,2.134,0,0,0-2.3-2.236Z" transform="translate(-322.48 -618.099)"/>
      <path id="Path_291" data-name="Path 291" d="M398.928,625.665a2.777,2.777,0,0,1-3.043,2.88H393.4v-5.793h2.483A2.823,2.823,0,0,1,398.928,625.665Zm-4.8-2.247v4.461h1.762a2.1,2.1,0,0,0,2.3-2.226,2.134,2.134,0,0,0-2.3-2.236Z" transform="translate(-322.48 -618.099)"/>
      <path id="Path_292" data-name="Path 292" d="M401.247,629.374a3.543,3.543,0,1,1,3.589-3.536,3.443,3.443,0,0,1-2.209,3.322l.452.928h-.94l-.363-.741a3.761,3.761,0,0,1-.529.027m-.25-1.669h.94l.339.717a2.658,2.658,0,0,0,1.68-2.584,2.636,2.636,0,1,0-5.266,0,2.584,2.584,0,0,0,2.608,2.733h.113Z" transform="translate(-316.273 -618.75)"/>
      <path id="Path_293" data-name="Path 293" d="M401.247,629.374a3.543,3.543,0,1,1,3.589-3.536,3.443,3.443,0,0,1-2.209,3.322l.452.928h-.94l-.363-.741A3.761,3.761,0,0,1,401.247,629.374Zm-.25-1.669h.94l.339.717a2.658,2.658,0,0,0,1.68-2.584,2.636,2.636,0,1,0-5.266,0,2.584,2.584,0,0,0,2.608,2.733h.113Z" transform="translate(-316.273 -618.75)"/>
      <path id="Path_294" data-name="Path 294" d="M402.581,626.5c0,1.2.344,1.517,1.666,1.517s1.668-.312,1.668-1.517v-3.752h.719V626.7c0,1.42-.675,2-2.387,2s-2.387-.579-2.387-2v-3.944h.721Z" transform="translate(-310.608 -618.099)"/>
      <path id="Path_295" data-name="Path 295" d="M402.581,626.5c0,1.2.344,1.517,1.666,1.517s1.668-.312,1.668-1.517v-3.752h.719V626.7c0,1.42-.675,2-2.387,2s-2.387-.579-2.387-2v-3.944h.721Z" transform="translate(-310.608 -618.099)"/>
      <path id="Path_296" data-name="Path 296" d="M407.444,622.752h.6l2.87,5.793h-.784l-.786-1.558h-3.2l-.762,1.558h-.774Zm1.579,3.557-1.279-2.569-1.269,2.569Z" transform="translate(-306.755 -618.099)"/>
      <path id="Path_297" data-name="Path 297" d="M407.444,622.752h.6l2.87,5.793h-.784l-.786-1.558h-3.2l-.762,1.558h-.774Zm1.579,3.557-1.279-2.569-1.269,2.569Z" transform="translate(-306.755 -618.099)"/>
      <path id="Path_298" data-name="Path 298" d="M408.134,622.752h.721v5.127h3.783v.668h-4.5Z" transform="translate(-301.801 -618.099)"/>
      <path id="Path_299" data-name="Path 299" d="M408.134,622.752h.721v5.127h3.783v.668h-4.5Z" transform="translate(-301.801 -618.099)"/>
      <rect id="Rectangle_71" data-name="Rectangle 71" width="0.731" height="5.848" transform="translate(113.013 4.622)"/>
      <rect id="Rectangle_72" data-name="Rectangle 72" width="0.731" height="5.848" transform="translate(113.012 4.621)"/>
      <path id="Path_300" data-name="Path 300" d="M414.324,623.418h-2.44v-.666h5.6v.666h-2.44v5.127h-.721Z" transform="translate(-296.538 -618.098)"/>
      <path id="Path_301" data-name="Path 301" d="M414.324,623.418h-2.44v-.666h5.6v.666h-2.44v5.127h-.721Z" transform="translate(-296.538 -618.098)"/>
      <path id="Path_302" data-name="Path 302" d="M417.8,625.644l-2.613-2.892h.9l2.074,2.291,2.065-2.291h.913l-2.622,2.9v2.894H417.8Z" transform="translate(-291.898 -618.098)"/>
      <path id="Path_303" data-name="Path 303" d="M417.8,625.644l-2.613-2.892h.9l2.074,2.291,2.065-2.291h.913l-2.622,2.9v2.894H417.8Z" transform="translate(-291.898 -618.098)"/>
      <path id="Path_304" data-name="Path 304" d="M420.654,627.455a5,5,0,0,0,3.021,1.142c1.293,0,2.108-.615,2.108-1.418,0-.613-.526-1.115-1.579-1.2a8.665,8.665,0,0,1-2.786-.426,1.519,1.519,0,0,1-.966-1.391c0-1.041,1.017-1.87,2.622-1.87a5.482,5.482,0,0,1,3.236,1.1l-.488.7a4.3,4.3,0,0,0-2.735-1.017c-1.065,0-1.755.476-1.755,1.041a.726.726,0,0,0,.324.6c.577.437,1.543.339,2.786.476,1.416.164,2.231.978,2.231,2.007,0,1.166-1.077,2.168-2.983,2.168a5.531,5.531,0,0,1-3.526-1.19Z" transform="translate(-284.915 -618.752)"/>
      <path id="Path_305" data-name="Path 305" d="M420.654,627.455a5,5,0,0,0,3.021,1.142c1.293,0,2.108-.615,2.108-1.418,0-.613-.526-1.115-1.579-1.2a8.665,8.665,0,0,1-2.786-.426,1.519,1.519,0,0,1-.966-1.391c0-1.041,1.017-1.87,2.622-1.87a5.482,5.482,0,0,1,3.236,1.1l-.488.7a4.3,4.3,0,0,0-2.735-1.017c-1.065,0-1.755.476-1.755,1.041a.726.726,0,0,0,.324.6c.577.437,1.543.339,2.786.476,1.416.164,2.231.978,2.231,2.007,0,1.166-1.077,2.168-2.983,2.168a5.531,5.531,0,0,1-3.526-1.19Z" transform="translate(-284.915 -618.752)"/>
      <rect id="Rectangle_73" data-name="Rectangle 73" width="0.731" height="5.848" transform="translate(144.751 4.622)"/>
      <rect id="Rectangle_74" data-name="Rectangle 74" width="0.731" height="5.848" transform="translate(144.75 4.621)"/>
      <path id="Path_306" data-name="Path 306" d="M425.683,622.752h.375l3.764,4.334v-4.334h.719v5.795h-.363l-3.774-4.334v4.334h-.721Z" transform="translate(-277.169 -618.099)"/>
      <path id="Path_307" data-name="Path 307" d="M425.683,622.752h.375l3.764,4.334v-4.334h.719v5.795h-.363l-3.774-4.334v4.334h-.721Z" transform="translate(-277.169 -618.099)"/>
      <path id="Path_308" data-name="Path 308" d="M434.434,627.2a3.036,3.036,0,1,1-.13-3.151l-.6.43a2.127,2.127,0,0,0-1.935-1.106,2.362,2.362,0,0,0,0,4.719,2.277,2.277,0,0,0,2.086-1.322Z" transform="translate(-272.837 -618.174)"/>
      <path id="Path_309" data-name="Path 309" d="M434.434,627.2a3.036,3.036,0,1,1-.13-3.151l-.6.43a2.127,2.127,0,0,0-1.935-1.106,2.362,2.362,0,0,0,0,4.719,2.277,2.277,0,0,0,2.086-1.322Z" transform="translate(-272.837 -618.174)"/>
      <path id="Path_310" data-name="Path 310" d="M432.2,622.752h4.557v.666h-3.836v1.7h2.322v.666h-2.322v2.1H437v.668h-4.8Z" transform="translate(-268.02 -618.099)"/>
      <path id="Path_311" data-name="Path 311" d="M432.2,622.752h4.557v.666h-3.836v1.7h2.322v.666h-2.322v2.1H437v.668h-4.8Z" transform="translate(-268.02 -618.099)"/>
      <path id="Path_312" data-name="Path 312" d="M439.235,628.751h-.805v-5.214a1.171,1.171,0,0,1,.053-.286,3.8,3.8,0,0,1-.481.322l-1,.608-.481-.4,1.986-1.178h.726Z" transform="translate(-261.951 -618.302)"/>
      <path id="Path_313" data-name="Path 313" d="M439.235,628.751h-.805v-5.214a1.171,1.171,0,0,1,.053-.286,3.8,3.8,0,0,1-.481.322l-1,.608-.481-.4,1.986-1.178h.726Z" transform="translate(-261.951 -618.302)"/>
      <path id="Path_314" data-name="Path 314" d="M439.291,628.127a6.13,6.13,0,0,0,1.531.214,2.6,2.6,0,0,0,2.906-2.654,2.9,2.9,0,0,1-2.245.846c-1.543,0-2.605-.791-2.605-1.961s1.139-2,2.776-2a2.56,2.56,0,0,1,2.865,2.838c0,2.257-1.271,3.435-3.709,3.435a7.865,7.865,0,0,1-1.6-.166Zm4.269-3.555c0-.875-.767-1.493-1.868-1.493-1.156,0-1.947.608-1.947,1.5,0,.875.767,1.447,1.908,1.447s1.906-.581,1.906-1.456" transform="translate(-258.648 -618.351)"/>
      <path id="Path_315" data-name="Path 315" d="M439.291,628.127a6.13,6.13,0,0,0,1.531.214,2.6,2.6,0,0,0,2.906-2.654,2.9,2.9,0,0,1-2.245.846c-1.543,0-2.605-.791-2.605-1.961s1.139-2,2.776-2a2.56,2.56,0,0,1,2.865,2.838c0,2.257-1.271,3.435-3.709,3.435a7.865,7.865,0,0,1-1.6-.166Zm4.269-3.555c0-.875-.767-1.493-1.868-1.493-1.156,0-1.947.608-1.947,1.5,0,.875.767,1.447,1.908,1.447S443.559,625.447,443.559,624.572Z" transform="translate(-258.648 -618.351)"/>
      <path id="Path_316" data-name="Path 316" d="M444.677,622.587c1.413,0,2.452.635,2.452,1.493a3.131,3.131,0,0,1-1.283,2.1,22.061,22.061,0,0,1-2.711,2.1,1.9,1.9,0,0,1,.428-.029h3.8v.526h-5.216v-.5c1.221-.894,4.1-2.829,4.1-4.091,0-.589-.714-1.041-1.646-1.041a5.284,5.284,0,0,0-2.024.442l-.156-.6a6.922,6.922,0,0,1,2.257-.406" transform="translate(-254.06 -618.33)"/>
      <path id="Path_317" data-name="Path 317" d="M444.677,622.587c1.413,0,2.452.635,2.452,1.493a3.131,3.131,0,0,1-1.283,2.1,22.061,22.061,0,0,1-2.711,2.1,1.9,1.9,0,0,1,.428-.029h3.8v.526h-5.216v-.5c1.221-.894,4.1-2.829,4.1-4.091,0-.589-.714-1.041-1.646-1.041a5.284,5.284,0,0,0-2.024.442l-.156-.6A6.922,6.922,0,0,1,444.677,622.587Z" transform="translate(-254.06 -618.33)"/>
      <path id="Path_318" data-name="Path 318" d="M447.8,628.751H447v-5.214a1.2,1.2,0,0,1,.053-.286,3.633,3.633,0,0,1-.481.322l-1,.608-.481-.4,1.985-1.178h.726Z" transform="translate(-249.923 -618.302)"/>
      <path id="Path_319" data-name="Path 319" d="M447.8,628.751H447v-5.214a1.2,1.2,0,0,1,.053-.286,3.633,3.633,0,0,1-.481.322l-1,.608-.481-.4,1.985-1.178h.726Z" transform="translate(-249.923 -618.302)"/>
      <path id="Path_320" data-name="Path 320" d="M372.1,626.152a1.671,1.671,0,1,1,2.363,0,1.673,1.673,0,0,1-2.363,0" transform="translate(-353.071 -617.328)"/>
      <path id="Path_321" data-name="Path 321" d="M448.086,626.152a1.671,1.671,0,1,1,2.363,0,1.673,1.673,0,0,1-2.363,0" transform="translate(-246.408 -617.328)"/>
      <path id="Path_322" data-name="Path 322" d="M379.747,645.633H366.609V659.18l-1.163,1.178V644.435l15.455.008V629.024H366.609v13.444l-1.163,1.175V629.024H349.24v15.412l15.407.008-1.159,1.19H350.351V659.18l-1.11,1.123v.069H380.9V644.445Z" transform="translate(-384.468 -609.295)"/>
      <path id="Path_323" data-name="Path 323" d="M349.219,629.02v14.629l1.163-1.178V629.02Z" transform="translate(-384.498 -609.3)"/>
      <path id="Path_324" data-name="Path 324" d="M457.873,631.85c0,.219-.113.336-.394.336h-.5v-.668h.522c.262,0,.375.134.375.332m.9,2.05-.613-1.17a.917.917,0,0,0,.557-.9c0-.731-.478-1-1.2-1h-1.382V633.9h.841v-1.039h.349l.5,1.039Zm1.382-1.471a2.834,2.834,0,1,0-2.831,2.834,2.778,2.778,0,0,0,2.831-2.834m-.579,0a2.255,2.255,0,1,1-2.252-2.279,2.174,2.174,0,0,1,2.252,2.279" transform="translate(-236.735 -608.489)"/>
      <path id="Path_325" data-name="Path 325" d="M372.376,648.53c.618-.024,1.216-.045,1.844-.065,1.139,3.375,2.911,7.637,4.377,11.211,3.082-.2,5.911-.416,9.1-.493-1.757-2.793-5.824-10.66-7.153-13.643a8.521,8.521,0,0,0,4.2-7.456c-.067-6.336-4.057-8.987-10.146-9.052h-9.334c.243,6.418.308,9.747.31,16.155,0,5.894-.1,9.4-.31,15.408,2.526-.187,4.952-.358,7.485-.534-.207-3.858-.336-7.379-.372-11.531m1.026-13.681c3,0,4.3,1.591,4.341,4.093-.031,2.574-1.317,3.891-4.413,3.99a7.3,7.3,0,0,1-.954-.02c0-2.2.031-5.422.135-8.011a6.432,6.432,0,0,1,.892-.053" transform="translate(-361.976 -609.284)"/>
      <path id="Path_326" data-name="Path 326" d="M396.657,629.673h-.144l-7.067.009.01.151c.248,3.25.346,11.406.274,14.8-.094,4.673-.632,7.2-3.192,7.17a3.366,3.366,0,0,1-2.714-.752c-.894-.913-1.286-2.831-1.305-6.42,0-5.612.137-13.086.269-14.809l.012-.154-2.793.007-5.149.012.012.154c.19,2.2.293,10.312.241,18.467.029,3.266.86,5.74,2.471,7.355,1.779,1.786,4.466,2.584,8.213,2.437,7.055-.409,10.523-3.805,10.61-10.382-.074-4.791.039-15.037.243-17.9Z" transform="translate(-348.509 -608.384)"/>
      <path id="Path_327" data-name="Path 327" d="M397.736,640.737l-1.63-.654c-2.673-1.125-2.952-1.647-2.978-2.654,0-1.1,1.06-1.894,2.574-1.92a11.841,11.841,0,0,1,5.319,1.149l.147.07,1.6-6.129-.122-.041a20.369,20.369,0,0,0-7.36-1.133c-5.519.065-9.7,3.957-9.735,9.052.084,4.052,1.764,6.682,5.132,8.045l2.045.834c2.82,1.115,3.06,1.87,3.079,2.738,0,1.18-.935,1.807-2.769,1.868a15.9,15.9,0,0,1-5.966-1.25l-.149-.062-.257-.115-.043.154-1.613,5.534.269.12.07.031a19.925,19.925,0,0,0,8.262,1.209c5.954-.262,9.814-3.632,9.836-8.586-.089-4.038-1.9-6.661-5.711-8.259" transform="translate(-334.258 -608.741)"/>
      <path id="Path_328" data-name="Path 328" d="M430.647,650.1h-.01l-.187.017-.4.029-.474.038c-.428.036-.815.065-1.183.094-1.457.106-2.831.166-5.012.156-.082-2.069-.12-4.232-.12-6.8,0-5.526.075-8.3.356-13.477l.017-.327.007-.151-7.927,0,.01.142.01.255,0,.08c.221,5.374.284,8.264.286,13.446,0,4.723-.092,7.331-.286,11.768l-.007.14-.017.3h.142l11.223.163,2.024.034,1.486-5.7Z" transform="translate(-291.163 -608.385)"/>
      <path id="Path_329" data-name="Path 329" d="M438.666,650.632h-.012l0-.014-.6.041c-.353.019-.7.038-1.033.053-1.861.07-3.892.077-6.565.034-.072-1.553-.106-3.046-.106-4.92l.51.007.216.007c.082,0,.161,0,.238.005,2.031.05,3.127.154,4.778.305l.49.046.438.039v-.022l.24.022,0-.154V639.9l-.238.012V639.9l-.421.022c-1.779.1-2.851.154-4.755.159-.454,0-.945,0-1.493,0,0-1.678.034-3.021.106-4.418,2.923.017,4.706.036,6.721.216l.435.046,0-.156v-6.074h-.4l-14.407-.014,0,.142.01.339c.223,5.411.286,8.321.288,13.545,0,4.865-.1,7.485-.288,11.912l-.01.238,0,.195.135.005c4.615.1,9.131.216,13.814.363l.1,0,0-.007.1,0,.1,0,1.8-5.8Z" transform="translate(-281.212 -608.379)"/>
      <path id="Path_330" data-name="Path 330" d="M445.178,629.71l.022.344.01.146c.224,4.82.221,7.646.219,12.328v1.622c-.012,3.526-.416,5.579-1.274,6.461a2.327,2.327,0,0,1-1.884.618,4.525,4.525,0,0,1-2.332-.563c-1.115-.759-1.661-2.526-1.687-6.66v-1.543c0-4.663,0-7.48.255-12.283l.029-.481-.144,0-7.785-.012,0,.147v.075l.014.264c.185,4.324.187,7.4.187,10.374v.623l.017,3.091.019,2.99c.055,6.4,3.55,9.7,10.675,10.086,3.735.134,6.406-.659,8.168-2.425,1.608-1.61,2.408-3.973,2.452-7.223l0-3.146,0-3.084v-.642c0-3.122,0-6.069.216-10.6l0-.079.026-.406Z" transform="translate(-270.259 -608.366)"/>
      <path id="Path_331" data-name="Path 331" d="M472.206,659.52l-.024-.305-.022-.235,0,0c-.82-10.9-1.19-27.332-1.226-29.026v-.135h0v0l0-.142H461.8l-.034.091-.009.031h-.015l-.07.247-.019.072c-1.553,5.285-3.353,12.172-4.641,17.748-.048-.219-.1-.44-.144-.666-1.353-6.377-2.848-11.985-4.274-17.1l-.043-.146c-.029-.11-.046-.173-.048-.178l-.031-.1h-.1c-.062,0-6.346.026-9.249,0l-.135,0v.144l-.007.38c-.245,8.893-.841,16.676-2.062,26.87l-.043.344-.022.151.147.008,6.454.343.017-.358,0-.082c.18-5.685.478-10.905.99-17.292,1.8,6.2,3.25,12.006,4.418,17.7l.055.257.022.1.1,0,6.579.411.036-.183.034-.156c1.142-5.082,2.654-10.834,4.612-17.549.209,6.187.255,11.941.281,17.758v.462Z" transform="translate(-255.869 -608.383)"/>
      <path id="Path_332" data-name="Path 332" d="M394.653,629.685l-1.707,6.471.615-.06,1.084-.1a41.248,41.248,0,0,1,4.548-.248c0,.255.036,2.709.036,2.709l.055,4.358c0,5.331-.067,8.086-.32,12.8l-.014.3-.007.152.144-.01,7.75-.142-.015-.264-.01-.169c-.25-4.543-.32-7.278-.322-12.72,0,0,.075-6.089.089-7.048,2.416-.005,5.372-.005,7.333.132l.2.014.221.015,0-6.2Z" transform="translate(-323.12 -608.384)"/>
      <path id="Path_333" data-name="Path 333" d="M421.971,643.379c-.012,2.242-.519,7.475-4.959,7.591-3.663-.053-5.007-3.95-5.038-7.582,0-2.334.5-7.78,5.043-7.918,3.594.063,4.92,4.3,4.954,7.908m-4.951-13.893h0c-8.754.116-12.852,7.5-12.956,14.321.079,7.771,4.92,12.465,12.956,12.559,7.721-.106,12.79-5.309,12.917-13.256-.082-8.153-5.151-13.5-12.915-13.624" transform="translate(-307.518 -608.646)"/>
      <rect id="Rectangle_75" data-name="Rectangle 75" width="7.418" height="5.072" transform="translate(86.558 32.668)"/>
    </g>
  </g>
</svg>
