<svg xmlns="http://www.w3.org/2000/svg" xmlns:xlink="http://www.w3.org/1999/xlink" width="138.641" height="31.84" viewBox="0 0 138.641 31.84">
  <defs>
    <clipPath id="clip-path">
      <rect id="Rectangle_76" data-name="Rectangle 76" width="138.641" height="31.84" fill="#fff" stroke="#707070" stroke-width="1"/>
    </clipPath>
  </defs>
  <g id="Group_6793" data-name="Group 6793" style="isolation: isolate">
    <g id="Group_4627" data-name="Group 4627" transform="translate(0 0)" clip-path="url(#clip-path)">
      <path id="Path_280" data-name="Path 280" d="M378.018,622.752h2.061c.707,0,1.128.373,1.128,1a1,1,0,0,1-.855,1.014l.9,1.581h-.494l-.9-1.574h-1.395v1.574h-.446Zm2.034,1.6c.453,0,.688-.208.688-.586s-.234-.6-.668-.6h-1.608v1.187Z" transform="translate(-356.954 -619.864)" fill="#fff"/>
      <path id="Path_281" data-name="Path 281" d="M378.018,622.752h2.061c.707,0,1.128.373,1.128,1a1,1,0,0,1-.855,1.014l.9,1.581h-.494l-.9-1.574h-1.395v1.574h-.446Zm2.034,1.6c.453,0,.688-.208.688-.586s-.234-.6-.668-.6h-1.608v1.187Z" transform="translate(-356.954 -619.864)" fill="#fff"/>
      <path id="Path_282" data-name="Path 282" d="M381.712,625.08c0,.747.213.941,1.034.941s1.035-.194,1.035-.941v-2.328h.446V625.2c0,.881-.419,1.241-1.481,1.241s-1.481-.359-1.481-1.241v-2.448h.447Z" transform="translate(-355.358 -619.864)" fill="#fff"/>
      <path id="Path_283" data-name="Path 283" d="M381.712,625.08c0,.747.213.941,1.034.941s1.035-.194,1.035-.941v-2.328h.446V625.2c0,.881-.419,1.241-1.481,1.241s-1.481-.359-1.481-1.241v-2.448h.447Z" transform="translate(-355.358 -619.864)" fill="#fff"/>
      <path id="Path_284" data-name="Path 284" d="M384.577,625.447a2.663,2.663,0,0,0,1.608.607c.686,0,1.12-.327,1.12-.753,0-.328-.279-.594-.84-.641a4.636,4.636,0,0,1-1.481-.227.808.808,0,0,1-.515-.74c0-.555.541-.995,1.395-.995a2.916,2.916,0,0,1,1.721.588l-.26.373a2.3,2.3,0,0,0-1.454-.54c-.568,0-.935.254-.935.553a.385.385,0,0,0,.175.321c.306.233.82.181,1.481.253.753.087,1.187.521,1.187,1.067,0,.62-.574,1.154-1.588,1.154a2.938,2.938,0,0,1-1.873-.632Z" transform="translate(-353.858 -619.891)" fill="#fff"/>
      <path id="Path_285" data-name="Path 285" d="M384.577,625.447a2.663,2.663,0,0,0,1.608.607c.686,0,1.12-.327,1.12-.753,0-.328-.279-.594-.84-.641a4.636,4.636,0,0,1-1.481-.227.808.808,0,0,1-.515-.74c0-.555.541-.995,1.395-.995a2.916,2.916,0,0,1,1.721.588l-.26.373a2.3,2.3,0,0,0-1.454-.54c-.568,0-.935.254-.935.553a.385.385,0,0,0,.175.321c.306.233.82.181,1.481.253.753.087,1.187.521,1.187,1.067,0,.62-.574,1.154-1.588,1.154a2.938,2.938,0,0,1-1.873-.632Z" transform="translate(-353.858 -619.891)" fill="#fff"/>
      <path id="Path_286" data-name="Path 286" d="M388.761,623.166h-1.514v-.413h3.475v.413h-1.514v3.181h-.447Z" transform="translate(-352.418 -619.864)" fill="#fff"/>
      <path id="Path_287" data-name="Path 287" d="M388.761,623.166h-1.514v-.413h3.475v.413h-1.514v3.181h-.447Z" transform="translate(-352.418 -619.864)" fill="#fff"/>
      <path id="Path_288" data-name="Path 288" d="M390.333,622.752h2.828v.413h-2.381v1.055h1.441v.413h-1.441v1.3h2.528v.414h-2.976Z" transform="translate(-350.9 -619.864)" fill="#fff"/>
      <path id="Path_289" data-name="Path 289" d="M390.333,622.752h2.828v.413h-2.381v1.055h1.441v.413h-1.441v1.3h2.528v.414h-2.976Z" transform="translate(-350.9 -619.864)" fill="#fff"/>
      <path id="Path_290" data-name="Path 290" d="M396.831,624.56a1.723,1.723,0,0,1-1.888,1.787H393.4v-3.595h1.541a1.752,1.752,0,0,1,1.888,1.808m-2.982-1.395v2.769h1.093a1.3,1.3,0,0,0,1.429-1.381,1.324,1.324,0,0,0-1.429-1.387Z" transform="translate(-349.392 -619.864)" fill="#fff"/>
      <path id="Path_291" data-name="Path 291" d="M396.831,624.56a1.723,1.723,0,0,1-1.888,1.787H393.4v-3.595h1.541A1.752,1.752,0,0,1,396.831,624.56Zm-2.982-1.395v2.769h1.093a1.3,1.3,0,0,0,1.429-1.381,1.324,1.324,0,0,0-1.429-1.387Z" transform="translate(-349.392 -619.864)" fill="#fff"/>
      <path id="Path_292" data-name="Path 292" d="M399.948,626.685a2.2,2.2,0,1,1,2.227-2.194,2.136,2.136,0,0,1-1.371,2.062l.28.576H400.5l-.225-.46a2.337,2.337,0,0,1-.328.017m-.155-1.035h.583l.21.445a1.65,1.65,0,0,0,1.043-1.6,1.636,1.636,0,1,0-3.268,0,1.6,1.6,0,0,0,1.618,1.7h.07Z" transform="translate(-347.218 -620.092)" fill="#fff"/>
      <path id="Path_293" data-name="Path 293" d="M399.948,626.685a2.2,2.2,0,1,1,2.227-2.194,2.136,2.136,0,0,1-1.371,2.062l.28.576H400.5l-.225-.46A2.337,2.337,0,0,1,399.948,626.685Zm-.155-1.035h.583l.21.445a1.65,1.65,0,0,0,1.043-1.6,1.636,1.636,0,1,0-3.268,0,1.6,1.6,0,0,0,1.618,1.7h.07Z" transform="translate(-347.218 -620.092)" fill="#fff"/>
      <path id="Path_294" data-name="Path 294" d="M402.308,625.08c0,.747.213.941,1.034.941s1.035-.194,1.035-.941v-2.328h.446V625.2c0,.881-.419,1.241-1.481,1.241s-1.481-.359-1.481-1.241v-2.448h.448Z" transform="translate(-345.234 -619.864)" fill="#fff"/>
      <path id="Path_295" data-name="Path 295" d="M402.308,625.08c0,.747.213.941,1.034.941s1.035-.194,1.035-.941v-2.328h.446V625.2c0,.881-.419,1.241-1.481,1.241s-1.481-.359-1.481-1.241v-2.448h.448Z" transform="translate(-345.234 -619.864)" fill="#fff"/>
      <path id="Path_296" data-name="Path 296" d="M406.367,622.752h.373l1.781,3.595h-.486l-.488-.967h-1.988l-.473.967h-.48Zm.98,2.207-.794-1.594-.788,1.594Z" transform="translate(-343.885 -619.864)" fill="#fff"/>
      <path id="Path_297" data-name="Path 297" d="M406.367,622.752h.373l1.781,3.595h-.486l-.488-.967h-1.988l-.473.967h-.48Zm.98,2.207-.794-1.594-.788,1.594Z" transform="translate(-343.885 -619.864)" fill="#fff"/>
      <path id="Path_298" data-name="Path 298" d="M408.134,622.752h.447v3.182h2.348v.414h-2.8Z" transform="translate(-342.15 -619.864)" fill="#fff"/>
      <path id="Path_299" data-name="Path 299" d="M408.134,622.752h.447v3.182h2.348v.414h-2.8Z" transform="translate(-342.15 -619.864)" fill="#fff"/>
      <rect id="Rectangle_71" data-name="Rectangle 71" width="0.453" height="3.629" transform="translate(70.129 2.868)" fill="#fff"/>
      <rect id="Rectangle_72" data-name="Rectangle 72" width="0.453" height="3.629" transform="translate(70.129 2.868)" fill="#fff"/>
      <path id="Path_300" data-name="Path 300" d="M413.4,623.166h-1.514v-.413h3.475v.413h-1.514v3.181H413.4Z" transform="translate(-340.307 -619.864)" fill="#fff"/>
      <path id="Path_301" data-name="Path 301" d="M413.4,623.166h-1.514v-.413h3.475v.413h-1.514v3.181H413.4Z" transform="translate(-340.307 -619.864)" fill="#fff"/>
      <path id="Path_302" data-name="Path 302" d="M416.81,624.547l-1.621-1.795h.561l1.287,1.422,1.281-1.422h.567l-1.627,1.8v1.8h-.448Z" transform="translate(-338.682 -619.864)" fill="#fff"/>
      <path id="Path_303" data-name="Path 303" d="M416.81,624.547l-1.621-1.795h.561l1.287,1.422,1.281-1.422h.567l-1.627,1.8v1.8h-.448Z" transform="translate(-338.682 -619.864)" fill="#fff"/>
      <path id="Path_304" data-name="Path 304" d="M420.468,625.494a3.1,3.1,0,0,0,1.875.708c.8,0,1.308-.382,1.308-.88,0-.38-.327-.692-.98-.747a5.378,5.378,0,0,1-1.729-.264.943.943,0,0,1-.6-.863c0-.646.631-1.161,1.627-1.161a3.4,3.4,0,0,1,2.008.685l-.3.437a2.671,2.671,0,0,0-1.7-.631c-.661,0-1.089.3-1.089.646a.451.451,0,0,0,.2.374c.358.271.958.21,1.729.3.879.1,1.384.607,1.384,1.245,0,.723-.668,1.345-1.851,1.345a3.433,3.433,0,0,1-2.188-.738Z" transform="translate(-336.237 -620.093)" fill="#fff"/>
      <path id="Path_305" data-name="Path 305" d="M420.468,625.494a3.1,3.1,0,0,0,1.875.708c.8,0,1.308-.382,1.308-.88,0-.38-.327-.692-.98-.747a5.378,5.378,0,0,1-1.729-.264.943.943,0,0,1-.6-.863c0-.646.631-1.161,1.627-1.161a3.4,3.4,0,0,1,2.008.685l-.3.437a2.671,2.671,0,0,0-1.7-.631c-.661,0-1.089.3-1.089.646a.451.451,0,0,0,.2.374c.358.271.958.21,1.729.3.879.1,1.384.607,1.384,1.245,0,.723-.668,1.345-1.851,1.345a3.433,3.433,0,0,1-2.188-.738Z" transform="translate(-336.237 -620.093)" fill="#fff"/>
      <rect id="Rectangle_73" data-name="Rectangle 73" width="0.453" height="3.629" transform="translate(89.824 2.868)" fill="#fff"/>
      <rect id="Rectangle_74" data-name="Rectangle 74" width="0.453" height="3.629" transform="translate(89.823 2.868)" fill="#fff"/>
      <path id="Path_306" data-name="Path 306" d="M425.682,622.752h.233l2.336,2.689v-2.689h.446v3.6h-.225l-2.342-2.689v2.689h-.447Z" transform="translate(-333.524 -619.864)" fill="#fff"/>
      <path id="Path_307" data-name="Path 307" d="M425.682,622.752h.233l2.336,2.689v-2.689h.446v3.6h-.225l-2.342-2.689v2.689h-.447Z" transform="translate(-333.524 -619.864)" fill="#fff"/>
      <path id="Path_308" data-name="Path 308" d="M432.285,625.493a1.884,1.884,0,1,1-.081-1.956l-.373.267a1.32,1.32,0,0,0-1.2-.686,1.465,1.465,0,0,0,0,2.928,1.413,1.413,0,0,0,1.295-.821Z" transform="translate(-332.007 -619.891)" fill="#fff"/>
      <path id="Path_309" data-name="Path 309" d="M432.285,625.493a1.884,1.884,0,1,1-.081-1.956l-.373.267a1.32,1.32,0,0,0-1.2-.686,1.465,1.465,0,0,0,0,2.928,1.413,1.413,0,0,0,1.295-.821Z" transform="translate(-332.007 -619.891)" fill="#fff"/>
      <path id="Path_310" data-name="Path 310" d="M432.2,622.752h2.828v.413h-2.381v1.055h1.441v.413h-1.441v1.3h2.528v.414H432.2Z" transform="translate(-330.32 -619.864)" fill="#fff"/>
      <path id="Path_311" data-name="Path 311" d="M432.2,622.752h2.828v.413h-2.381v1.055h1.441v.413h-1.441v1.3h2.528v.414H432.2Z" transform="translate(-330.32 -619.864)" fill="#fff"/>
      <path id="Path_312" data-name="Path 312" d="M438.206,626.419h-.5v-3.235a.729.729,0,0,1,.033-.177,2.355,2.355,0,0,1-.3.2l-.619.377-.3-.246,1.232-.731h.45Z" transform="translate(-328.195 -619.936)" fill="#fff"/>
      <path id="Path_313" data-name="Path 313" d="M438.206,626.419h-.5v-3.235a.729.729,0,0,1,.033-.177,2.355,2.355,0,0,1-.3.2l-.619.377-.3-.246,1.232-.731h.45Z" transform="translate(-328.195 -619.936)" fill="#fff"/>
      <path id="Path_314" data-name="Path 314" d="M439.134,626.019a3.806,3.806,0,0,0,.95.133,1.614,1.614,0,0,0,1.8-1.647,1.8,1.8,0,0,1-1.393.525c-.957,0-1.617-.491-1.617-1.217s.707-1.241,1.723-1.241a1.588,1.588,0,0,1,1.778,1.761c0,1.4-.789,2.132-2.3,2.132a4.882,4.882,0,0,1-.991-.1Zm2.649-2.206c0-.543-.476-.926-1.159-.926-.718,0-1.208.377-1.208.932s.476.9,1.184.9,1.183-.361,1.183-.9" transform="translate(-327.038 -619.953)" fill="#fff"/>
      <path id="Path_315" data-name="Path 315" d="M439.134,626.019a3.806,3.806,0,0,0,.95.133,1.614,1.614,0,0,0,1.8-1.647,1.8,1.8,0,0,1-1.393.525c-.957,0-1.617-.491-1.617-1.217s.707-1.241,1.723-1.241a1.588,1.588,0,0,1,1.778,1.761c0,1.4-.789,2.132-2.3,2.132a4.882,4.882,0,0,1-.991-.1Zm2.649-2.206c0-.543-.476-.926-1.159-.926-.718,0-1.208.377-1.208.932s.476.9,1.184.9S441.783,624.356,441.783,623.813Z" transform="translate(-327.038 -619.953)" fill="#fff"/>
      <path id="Path_316" data-name="Path 316" d="M443.717,622.587c.877,0,1.521.394,1.521.926a1.943,1.943,0,0,1-.8,1.3,13.691,13.691,0,0,1-1.682,1.3,1.182,1.182,0,0,1,.266-.018h2.358v.326h-3.237v-.309c.758-.555,2.545-1.756,2.545-2.539,0-.366-.443-.646-1.022-.646a3.279,3.279,0,0,0-1.256.274l-.1-.371a4.3,4.3,0,0,1,1.4-.252" transform="translate(-325.431 -619.945)" fill="#fff"/>
      <path id="Path_317" data-name="Path 317" d="M443.717,622.587c.877,0,1.521.394,1.521.926a1.943,1.943,0,0,1-.8,1.3,13.691,13.691,0,0,1-1.682,1.3,1.182,1.182,0,0,1,.266-.018h2.358v.326h-3.237v-.309c.758-.555,2.545-1.756,2.545-2.539,0-.366-.443-.646-1.022-.646a3.279,3.279,0,0,0-1.256.274l-.1-.371A4.3,4.3,0,0,1,443.717,622.587Z" transform="translate(-325.431 -619.945)" fill="#fff"/>
      <path id="Path_318" data-name="Path 318" d="M446.775,626.419h-.5v-3.235a.747.747,0,0,1,.033-.177,2.251,2.251,0,0,1-.3.2l-.619.377-.3-.246,1.232-.731h.45Z" transform="translate(-323.982 -619.936)" fill="#fff"/>
      <path id="Path_319" data-name="Path 319" d="M446.775,626.419h-.5v-3.235a.747.747,0,0,1,.033-.177,2.251,2.251,0,0,1-.3.2l-.619.377-.3-.246,1.232-.731h.45Z" transform="translate(-323.982 -619.936)" fill="#fff"/>
      <path id="Path_320" data-name="Path 320" d="M371.911,625.07a1.037,1.037,0,1,1,1.466,0,1.038,1.038,0,0,1-1.466,0" transform="translate(-360.105 -619.595)" fill="#fff"/>
      <path id="Path_321" data-name="Path 321" d="M447.9,625.07a1.037,1.037,0,1,1,1.466,0,1.038,1.038,0,0,1-1.466,0" transform="translate(-322.751 -619.595)" fill="#fff"/>
      <path id="Path_322" data-name="Path 322" d="M368.171,639.33h-8.153v8.406l-.722.731v-9.88l9.591,0v-9.568h-8.869v8.342l-.722.729v-9.072H349.24v9.564l9.561,0-.719.738h-8.153v8.406l-.689.7v.043h19.647v-9.883Z" transform="translate(-371.1 -616.781)" fill="#fff"/>
      <path id="Path_323" data-name="Path 323" d="M349.219,629.02V638.1l.722-.731V629.02Z" transform="translate(-371.111 -616.783)" fill="#fff"/>
      <path id="Path_324" data-name="Path 324" d="M456.589,631c0,.136-.07.209-.245.209h-.312v-.415h.324c.163,0,.233.083.233.206m.559,1.272-.38-.726a.569.569,0,0,0,.346-.561c0-.454-.3-.623-.746-.623h-.858v1.911h.522v-.644h.216l.31.644Zm.858-.913a1.759,1.759,0,1,0-1.757,1.759,1.724,1.724,0,0,0,1.757-1.759m-.359,0a1.4,1.4,0,1,1-1.4-1.414,1.349,1.349,0,0,1,1.4,1.414" transform="translate(-319.364 -616.499)" fill="#fff"/>
      <path id="Path_325" data-name="Path 325" d="M369.678,641.131c.383-.015.755-.028,1.144-.04.707,2.094,1.806,4.739,2.716,6.957,1.912-.122,3.668-.258,5.646-.306-1.09-1.733-3.614-6.615-4.439-8.466a5.288,5.288,0,0,0,2.607-4.627c-.042-3.932-2.518-5.577-6.3-5.617h-5.792c.151,3.983.191,6.048.193,10.025,0,3.657-.061,5.832-.193,9.561,1.568-.116,3.073-.222,4.645-.331-.128-2.394-.209-4.579-.231-7.155m.637-8.49a2.355,2.355,0,0,1,2.694,2.54c-.019,1.6-.817,2.415-2.738,2.476a4.537,4.537,0,0,1-.592-.012c0-1.363.019-3.365.084-4.971a3.988,3.988,0,0,1,.553-.033" transform="translate(-363.223 -616.777)" fill="#fff"/>
      <path id="Path_326" data-name="Path 326" d="M388.385,629.673H388.3l-4.385.006.006.094c.154,2.017.215,7.078.17,9.187-.058,2.9-.392,4.469-1.981,4.449a2.089,2.089,0,0,1-1.684-.467c-.555-.567-.8-1.757-.81-3.984,0-3.483.085-8.12.167-9.189l.007-.1-1.733,0-3.195.008.007.1c.118,1.366.182,6.4.149,11.46a6.326,6.326,0,0,0,1.533,4.564c1.1,1.108,2.771,1.6,5.1,1.512,4.378-.254,6.53-2.361,6.584-6.442-.046-2.973.024-9.331.151-11.108Z" transform="translate(-358.507 -616.462)" fill="#fff"/>
      <path id="Path_327" data-name="Path 327" d="M392.907,636.442l-1.011-.406c-1.659-.7-1.832-1.022-1.848-1.647,0-.685.658-1.175,1.6-1.192a7.348,7.348,0,0,1,3.3.713l.091.043.993-3.8-.076-.025a12.639,12.639,0,0,0-4.567-.7,5.785,5.785,0,0,0-6.041,5.617c.052,2.515,1.095,4.146,3.185,4.992l1.269.518c1.75.692,1.9,1.16,1.911,1.7,0,.732-.58,1.122-1.718,1.159a9.867,9.867,0,0,1-3.7-.776l-.092-.039-.16-.072-.027.1-1,3.434.167.075.043.019a12.364,12.364,0,0,0,5.127.75c3.695-.163,6.09-2.254,6.1-5.328a5.208,5.208,0,0,0-3.544-5.125" transform="translate(-353.517 -616.587)" fill="#fff"/>
      <path id="Path_328" data-name="Path 328" d="M424.98,642.346h-.006l-.116.011-.249.018-.294.024c-.266.022-.506.04-.734.058-.9.066-1.757.1-3.11.1-.051-1.284-.075-2.626-.075-4.219,0-3.429.046-5.149.221-8.363l.01-.2,0-.094h-4.919l.006.088.006.158,0,.049c.137,3.335.176,5.128.178,8.344,0,2.931-.057,4.549-.178,7.3l0,.087-.01.184h.088l6.964.1,1.256.021.922-3.538Z" transform="translate(-338.425 -616.463)" fill="#fff"/>
      <path id="Path_329" data-name="Path 329" d="M432.646,642.681h-.007v-.009l-.374.025c-.219.012-.432.024-.641.033-1.155.043-2.415.048-4.074.021-.045-.964-.066-1.89-.066-3.053l.316,0,.134,0c.051,0,.1,0,.148,0,1.26.031,1.941.1,2.965.189l.3.028.272.024v-.013l.149.013,0-.1v-3.835l-.148.008v-.008l-.261.013c-1.1.061-1.769.1-2.95.1-.282,0-.586,0-.926,0,0-1.041.021-1.875.066-2.742,1.814.01,2.921.023,4.17.134l.27.028,0-.1v-3.769h-.251l-8.94-.009,0,.088.006.21c.139,3.357.177,5.164.179,8.405,0,3.019-.06,4.645-.179,7.392l-.006.148,0,.121.084,0c2.864.061,5.666.134,8.572.225l.063,0v0l.064,0,.063,0,1.117-3.6Z" transform="translate(-334.94 -616.461)" fill="#fff"/>
      <path id="Path_330" data-name="Path 330" d="M439.648,629.7l.013.213.006.091c.139,2.991.137,4.745.136,7.65v1.007c-.008,2.188-.258,3.462-.791,4.009a1.444,1.444,0,0,1-1.169.383,2.808,2.808,0,0,1-1.447-.349c-.692-.471-1.031-1.568-1.047-4.133v-.958c0-2.894,0-4.642.158-7.622l.018-.3h-.089l-4.831-.008,0,.091v.046l.009.164c.115,2.683.116,4.593.116,6.438v.386l.01,1.918.012,1.855c.034,3.974,2.2,6.02,6.624,6.259,2.318.083,3.975-.409,5.068-1.505a6.167,6.167,0,0,0,1.521-4.482V638.9l0-1.914v-.4c0-1.937,0-3.766.134-6.578l0-.049.016-.252Z" transform="translate(-331.104 -616.456)" fill="#fff"/>
      <path id="Path_331" data-name="Path 331" d="M460.31,648.195l-.015-.19-.013-.146,0,0c-.509-6.763-.738-16.961-.761-18.012v-.084h0v-.091h-5.666l-.021.057-.006.019h-.009l-.043.154-.012.045c-.964,3.28-2.081,7.553-2.88,11.014-.03-.136-.06-.273-.089-.413-.84-3.957-1.768-7.437-2.652-10.614l-.027-.091c-.018-.069-.028-.107-.03-.11l-.019-.06H448c-.039,0-3.938.016-5.74,0h-.083v.089l0,.236c-.152,5.519-.522,10.348-1.28,16.674l-.027.213-.013.094.091,0,4.005.213.01-.222,0-.051c.112-3.528.3-6.767.614-10.73,1.114,3.85,2.017,7.45,2.742,10.982l.034.16.013.064h.061l4.082.255.022-.113.021-.1c.709-3.153,1.647-6.723,2.862-10.89.13,3.839.158,7.41.174,11.02v.286Z" transform="translate(-326.065 -616.462)" fill="#fff"/>
      <path id="Path_332" data-name="Path 332" d="M394.005,629.681l-1.059,4.015.382-.037.673-.064a25.61,25.61,0,0,1,2.822-.154c0,.158.022,1.681.022,1.681l.034,2.7c0,3.308-.042,5.018-.2,7.946l-.009.186,0,.094.09-.006,4.809-.088-.009-.164-.006-.1c-.155-2.819-.2-4.516-.2-7.893,0,0,.046-3.778.055-4.373,1.5,0,3.334,0,4.551.082l.127.009.137.009v-3.85Z" transform="translate(-349.616 -616.462)" fill="#fff"/>
      <path id="Path_333" data-name="Path 333" d="M415.175,638.107c-.007,1.391-.322,4.639-3.077,4.71-2.273-.033-3.107-2.451-3.126-4.7,0-1.448.31-4.828,3.129-4.913,2.23.039,3.053,2.667,3.074,4.907m-3.073-8.621h0c-5.432.072-7.975,4.657-8.039,8.887.049,4.822,3.053,7.735,8.039,7.794,4.791-.066,7.937-3.295,8.016-8.226-.051-5.059-3.2-8.377-8.014-8.454" transform="translate(-344.152 -616.554)" fill="#fff"/>
      <rect id="Rectangle_75" data-name="Rectangle 75" width="4.603" height="3.147" transform="translate(53.713 20.272)" fill="#fff"/>
    </g>
  </g>
</svg>
