<svg xmlns="http://www.w3.org/2000/svg" width="119.645" height="118.015" viewBox="0 0 119.645 118.015">
  <g id="Group_8074" data-name="Group 8074" transform="translate(-150.179 -3885.19)">
    <path id="Path_374" data-name="Path 374" d="M316.608,706.585l34.755,26.52c6.923,5.279,18.145,5.279,25.066,0l34.755-26.52c6.921-5.282,12.536-15.621,12.536-23.089v-50.92c0-7.471-7.938-13.527-17.724-13.527H321.8c-9.789,0-17.725,6.056-17.725,13.527V683.5c0,7.468,5.61,17.807,12.533,23.089" transform="translate(-153.896 3266.141)"/>
    <path id="Path_375" data-name="Path 375" d="M323.531,643.152l.227-1.185c.506-2.623.862-5.194,3.942-5.194,2.463,0,2.992.922,2.478,3.857l-.488,2.522ZM316.05,650c-1.789,8.542.4,12.195,7.5,12.195,6.3,0,9.559-4.117,10.574-10.6h-6.157c-.612,3.653-1.621,5.455-3.9,5.455-1.848,0-3.036-.72-2.347-4.528l.811-4.221h12.321l.756-3.911c1.526-7.925,1.562-12.763-7.016-12.763-6.061,0-10.039,3.911-11.077,10.754Z" transform="translate(-135.896 3286.026)" fill="#fff"/>
    <path id="Path_376" data-name="Path 376" d="M330,667.471,336.5,628h-6.872l-6.5,39.474Z" transform="translate(-123.763 3280.292)" fill="#fff"/>
    <path id="Path_377" data-name="Path 377" d="M343.493,634.842l1.077-6.906H337.62l-1.076,6.906Z" transform="translate(-102.547 3280.195)" fill="#fff"/>
    <path id="Path_378" data-name="Path 378" d="M341.251,661.547l5.155-29.8H339.46l-5.155,29.8Z" transform="translate(-106.087 3286.216)" fill="#fff"/>
    <path id="Path_379" data-name="Path 379" d="M345.385,667.471,352.536,628h-6.872l-7.148,39.474Z" transform="translate(-99.427 3280.292)" fill="#fff"/>
    <path id="Path_380" data-name="Path 380" d="M323.158,639.418a10.123,10.123,0,0,0,.08-3.139A2.007,2.007,0,0,0,321,634.443c-1.786,0-2.414.849-2.829,3.286a4.382,4.382,0,0,0,.374,3.046,5.149,5.149,0,0,0,.808,1.059c.333.343.7.673,1.089,1.027,1.644,1.466,4.063,3,5.375,4.975,1.639,2.483,1.869,6.211,1.3,9.57-1.257,7.36-5.9,11.255-11.738,11.255-7.251,0-8.94-5.091-7.765-11.983l.421-2.489h7.086l-.351,2.053c-.767,3.774-.865,5.338,1.588,5.338,2.238,0,3.57-.735,4.048-3.526a4.949,4.949,0,0,0-1.371-4.747c-.625-.715-1.311-1.389-2.006-2.047s-1.417-1.317-2.112-2a15.931,15.931,0,0,1-3.583-4.851,11.73,11.73,0,0,1-.516-6.033c1.131-6.645,4.83-10.344,11.129-10.344,4.745,0,6.751,2.282,7.432,5.1a13.745,13.745,0,0,1,.24,4.229c-.057.725-.142,1.425-.237,2.06Z" transform="translate(-148.844 3280.349)" fill="#fff"/>
    <path id="Path_381" data-name="Path 381" d="M333.617,652.71h-6.351s-1.128,4.479.847,6.97,4.871,2.788,8.4,2.788,9.812-4.546,9.528-12.1-9.247-6.239-9.247-10.641,5.222-3.893,4.236.733h6.846s1.412-9.025-7.414-9.025-11.219,6.015-11.219,11.518,9.528,7.931,9.528,11.3-4.308,3.157-4.735.88-.418-2.424-.418-2.424" transform="translate(-117.726 3285.723)" fill="#fff"/>
    <path id="Path_382" data-name="Path 382" d="M348.767,632.992v-1.738h1.464c.586,0,1.453,0,1.453.818,0,.775-.465.937-1.146.919Zm2.452.924c1.069-.078,1.639-.535,1.639-1.665a1.764,1.764,0,0,0-.7-1.59,3.443,3.443,0,0,0-1.647-.281h-2.93V636.5h1.188v-2.584h1.187l1.35,2.584h1.376Zm-1.324,4.115a4.614,4.614,0,1,1,4.546-4.621,4.565,4.565,0,0,1-4.546,4.621m0,1.072a5.685,5.685,0,1,0-5.615-5.692,5.661,5.661,0,0,0,5.615,5.692" transform="translate(-90.312 3279.874)" fill="#fff"/>
    <path id="Path_383" data-name="Path 383" d="M308.359,646.347h96.285v-1.391H308.359" transform="translate(-147.119 3307.111)" fill="#fff"/>
  </g>
</svg>
