<svg xmlns="http://www.w3.org/2000/svg" width="190.09" height="66.601" viewBox="0 0 190.09 66.601">
  <g id="Group_8073" data-name="Group 8073" transform="translate(-446.696 -3429.137)">
    <path id="Path_350" data-name="Path 350" d="M216.488,697.422c.023,0,.038,0,.038-.03s-.027-.025-.045-.025h-.036v.055Zm-.043.136h-.053v-.23h.091c.06,0,.1.017.1.07s-.025.058-.066.06l.062.1h-.051l-.057-.1h-.023Zm.036-.276a.161.161,0,1,0,.157.16.155.155,0,0,0-.157-.16m-.225.16a.225.225,0,1,1,.225.21.212.212,0,0,1-.225-.21" transform="translate(298.335 2763.462)" fill="#fff"/>
    <path id="Path_351" data-name="Path 351" d="M216.488,697.422c.023,0,.038,0,.038-.03s-.027-.025-.045-.025h-.036v.055Zm-.043.136h-.053v-.23h.091c.06,0,.1.017.1.07s-.025.058-.066.06l.062.1h-.051l-.057-.1h-.023Zm.036-.276a.161.161,0,1,0,.157.16A.155.155,0,0,0,216.481,697.282Zm-.225.16a.225.225,0,1,1,.225.21A.212.212,0,0,1,216.256,697.443Z" transform="translate(298.335 2763.462)" fill="#fff" stroke="#fff" stroke-miterlimit="10" stroke-width="0.076"/>
    <path id="Path_352" data-name="Path 352" d="M370.106,713.82a2.615,2.615,0,0,1-1.656,1.384c-.642.209-7.908,2.8-17.11,6.071-13.749,4.895-30.863,10.986-35.393,12.539-4.186,1.435-13.309,4.719-21.355,7.617-6.386,2.3-11.9,4.285-13.08,4.67a20.03,20.03,0,0,1-12.618,0c-1.176-.385-6.692-2.37-13.077-4.67-8.048-2.9-17.17-6.182-21.359-7.617-4.53-1.552-21.646-7.644-35.4-12.54-9.2-3.273-16.462-5.86-17.1-6.069a1.407,1.407,0,1,1,0-2.769c.64-.209,7.91-2.8,17.112-6.072,13.749-4.893,30.861-10.985,35.389-12.537,4.188-1.435,13.313-4.721,21.362-7.618,6.383-2.3,11.9-4.284,13.073-4.67a20.028,20.028,0,0,1,12.618,0c1.178.385,6.69,2.37,13.077,4.67,8.048,2.9,17.17,6.183,21.359,7.618,4.53,1.552,21.638,7.642,35.385,12.535,9.2,3.278,16.475,5.865,17.118,6.074a2.615,2.615,0,0,1,1.656,1.385" transform="translate(266.396 2748.617)"/>
    <path id="Path_353" data-name="Path 353" d="M370.257,713.82A2.615,2.615,0,0,1,368.6,715.2c-.642.209-7.908,2.8-17.11,6.071-13.749,4.895-30.863,10.986-35.393,12.539-4.186,1.435-13.309,4.719-21.355,7.617-6.386,2.3-11.9,4.285-13.08,4.67a20.031,20.031,0,0,1-12.618,0c-1.176-.385-6.692-2.37-13.077-4.67-8.048-2.9-17.17-6.182-21.359-7.617-4.53-1.552-21.646-7.644-35.4-12.54-9.2-3.273-16.683-6.362-17.323-6.571-1.124-.368-1.318-.608-1.437-.882a2.626,2.626,0,0,1,1.658-1.385c.64-.209,7.91-2.8,17.112-6.072,13.751-4.893,30.861-10.985,35.389-12.537,4.188-1.435,13.313-4.721,21.363-7.618,6.384-2.3,11.9-4.284,13.073-4.67a20.028,20.028,0,0,1,12.618,0c1.178.385,6.69,2.37,13.076,4.67,8.048,2.9,17.17,6.183,21.359,7.618,4.53,1.552,21.638,7.642,35.385,12.535,9.2,3.278,16.476,5.865,17.118,6.074A2.616,2.616,0,0,1,370.257,713.82Z" transform="translate(266.528 2748.617)"/>
    <path id="Path_354" data-name="Path 354" d="M218.705,697.905h-.042l-2.145,8.563h-4.853l-2.978-11.248a4.393,4.393,0,0,0-.853-1.677h6.039a1.753,1.753,0,0,0-.166.848,5.078,5.078,0,0,0,.166,1.273l1.541,6.22h.042l2.083-8.341h5.081l2.187,8.362h.042l1.522-6.241a5.077,5.077,0,0,0,.166-1.273,1.545,1.545,0,0,0-.189-.848h3.229a3.962,3.962,0,0,0-.957,1.958l-2.729,10.967h-4.915Z" transform="translate(290.854 2760.184)" fill="#fff"/>
    <path id="Path_355" data-name="Path 355" d="M218.705,697.905h-.042l-2.145,8.563h-4.853l-2.978-11.248a4.393,4.393,0,0,0-.853-1.677h6.039a1.753,1.753,0,0,0-.166.848,5.078,5.078,0,0,0,.166,1.273l1.541,6.22h.042l2.083-8.341h5.081l2.187,8.362h.042l1.522-6.241a5.077,5.077,0,0,0,.166-1.273,1.545,1.545,0,0,0-.189-.848h3.229a3.962,3.962,0,0,0-.957,1.958l-2.729,10.967h-4.915Z" transform="translate(290.854 2760.184)" fill="#fff" stroke="#fff" stroke-miterlimit="10" stroke-width="0.076"/>
    <path id="Path_356" data-name="Path 356" d="M223.822,702.227c0,.546.166.769.706.769h2.041c.584,0,.75-.223.75-.769v-4.239c0-.546-.166-.769-.75-.769h-2.041c-.54,0-.706.223-.706.769Zm8.413-.242c0,1.979-.625,2.868-2.833,2.868h-7.663c-2.209,0-2.832-.89-2.832-2.868v-3.756c0-1.979.623-2.868,2.832-2.868H229.4c2.207,0,2.833.889,2.833,2.868Z" transform="translate(300.688 2761.799)" fill="#fff"/>
    <path id="Path_357" data-name="Path 357" d="M223.822,702.227c0,.546.166.769.706.769h2.041c.584,0,.75-.223.75-.769v-4.239c0-.546-.166-.769-.75-.769h-2.041c-.54,0-.706.223-.706.769Zm8.413-.242c0,1.979-.625,2.868-2.833,2.868h-7.663c-2.209,0-2.832-.89-2.832-2.868v-3.756c0-1.979.623-2.868,2.832-2.868H229.4c2.207,0,2.833.889,2.833,2.868Z" transform="translate(300.688 2761.799)" fill="#fff" stroke="#fff" stroke-miterlimit="10" stroke-width="0.076"/>
    <path id="Path_358" data-name="Path 358" d="M226.694,695.724a3.386,3.386,0,0,0-.542-2.181h5.457v10.744a3.391,3.391,0,0,0,.54,2.181h-6a3.387,3.387,0,0,0,.542-2.181Z" transform="translate(307.125 2760.184)" fill="#fff"/>
    <path id="Path_359" data-name="Path 359" d="M226.694,695.724a3.386,3.386,0,0,0-.542-2.181h5.457v10.744a3.391,3.391,0,0,0,.54,2.181h-6a3.387,3.387,0,0,0,.542-2.181Z" transform="translate(307.125 2760.184)" fill="#fff" stroke="#fff" stroke-miterlimit="10" stroke-width="0.076"/>
    <path id="Path_360" data-name="Path 360" d="M234.224,695.361l.125,1.152h.042c.21-.606.438-1.152,1.271-1.152h4.394c1.209,0,1.416.262,1.707,1.029h.042a1.1,1.1,0,0,1,1.1-1.029h3.374c1.624,0,2.978.444,2.978,3.716v3.6a3.377,3.377,0,0,0,.542,2.181h-5.582a3.389,3.389,0,0,0,.542-2.181v-4.766c0-.485-.23-.687-.6-.687h-1.624c-.376,0-.6.2-.6.687v4.766a3.377,3.377,0,0,0,.542,2.181h-5.582a3.389,3.389,0,0,0,.542-2.181v-4.766c0-.485-.23-.687-.6-.687H235.2c-.374,0-.6.2-.6.687v4.766a3.39,3.39,0,0,0,.54,2.181h-5.58a3.391,3.391,0,0,0,.54-2.181v-5.13a3.39,3.39,0,0,0-.54-2.181Z" transform="translate(310.154 2761.799)" fill="#fff"/>
    <path id="Path_361" data-name="Path 361" d="M234.224,695.361l.125,1.152h.042c.21-.606.438-1.152,1.271-1.152h4.394c1.209,0,1.416.262,1.707,1.029h.042a1.1,1.1,0,0,1,1.1-1.029h3.374c1.624,0,2.978.444,2.978,3.716v3.6a3.377,3.377,0,0,0,.542,2.181h-5.582a3.389,3.389,0,0,0,.542-2.181v-4.766c0-.485-.23-.687-.6-.687h-1.624c-.376,0-.6.2-.6.687v4.766a3.377,3.377,0,0,0,.542,2.181h-5.582a3.389,3.389,0,0,0,.542-2.181v-4.766c0-.485-.23-.687-.6-.687H235.2c-.374,0-.6.2-.6.687v4.766a3.39,3.39,0,0,0,.54,2.181h-5.58a3.391,3.391,0,0,0,.54-2.181v-5.13a3.39,3.39,0,0,0-.54-2.181Z" transform="translate(310.154 2761.799)" fill="#fff" stroke="#fff" stroke-miterlimit="10" stroke-width="0.076"/>
    <path id="Path_362" data-name="Path 362" d="M246.468,700.29c-.75.019-1.042.121-1.042.806v1.091c0,.687.293.787,1.042.808h1.144c.938,0,1.042-.142,1.042-1.354V700.29Zm3.811-4.929c2.353,0,3.291.969,3.291,3.575v4.139a2.6,2.6,0,0,0,.478,1.779h-4.913l-.251-1.05h-.042c-.249.848-.667,1.05-2,1.05h-3.5c-2.205,0-2.831-.89-2.831-2.868V701.3c0-1.979.625-2.867,2.831-2.867h4.479c.687,0,.833-.162.833-.606,0-.425-.145-.606-.833-.606h-4.894a3.891,3.891,0,0,0-1.958.4l.355-2.262Z" transform="translate(319.883 2761.799)" fill="#fff"/>
    <path id="Path_363" data-name="Path 363" d="M246.468,700.29c-.75.019-1.042.121-1.042.806v1.091c0,.687.293.787,1.042.808h1.144c.938,0,1.042-.142,1.042-1.354V700.29Zm3.811-4.929c2.353,0,3.291.969,3.291,3.575v4.139a2.6,2.6,0,0,0,.478,1.779h-4.913l-.251-1.05h-.042c-.249.848-.667,1.05-2,1.05h-3.5c-2.205,0-2.831-.89-2.831-2.868V701.3c0-1.979.625-2.867,2.831-2.867h4.479c.687,0,.833-.162.833-.606,0-.425-.145-.606-.833-.606h-4.894a3.891,3.891,0,0,0-1.958.4l.355-2.262Z" transform="translate(319.883 2761.799)" fill="#fff" stroke="#fff" stroke-miterlimit="10" stroke-width="0.076"/>
    <path id="Path_364" data-name="Path 364" d="M252.915,695.361l.145.989h.042a1.384,1.384,0,0,1,1.271-.989h3.979c2.311,0,3.269,1.333,3.269,3.454v3.857a3.378,3.378,0,0,0,.542,2.181h-6a3.376,3.376,0,0,0,.542-2.181v-4.666c0-.585-.208-.787-.812-.787H254.1c-.6,0-.812.2-.812.787v4.666a3.391,3.391,0,0,0,.54,2.181h-6a3.389,3.389,0,0,0,.542-2.181v-5.13a3.388,3.388,0,0,0-.542-2.181Z" transform="translate(326.386 2761.799)" fill="#fff"/>
    <path id="Path_365" data-name="Path 365" d="M252.915,695.361l.145.989h.042a1.384,1.384,0,0,1,1.271-.989h3.979c2.311,0,3.269,1.333,3.269,3.454v3.857a3.378,3.378,0,0,0,.542,2.181h-6a3.376,3.376,0,0,0,.542-2.181v-4.666c0-.585-.208-.787-.812-.787H254.1c-.6,0-.812.2-.812.787v4.666a3.391,3.391,0,0,0,.54,2.181h-6a3.389,3.389,0,0,0,.542-2.181v-5.13a3.388,3.388,0,0,0-.542-2.181Z" transform="translate(326.386 2761.799)" fill="#fff" stroke="#fff" stroke-miterlimit="10" stroke-width="0.076"/>
  </g>
</svg>
