<svg xmlns="http://www.w3.org/2000/svg" width="74.245" height="73.233" viewBox="0 0 74.245 73.233">
  <g id="Group_6820" data-name="Group 6820" style="isolation: isolate">
    <path id="Path_374" data-name="Path 374" d="M311.852,673.369l21.567,16.457a13.538,13.538,0,0,0,15.555,0l21.567-16.457c4.295-3.278,7.779-9.693,7.779-14.328v-31.6c0-4.636-4.926-8.394-11-8.394H315.074c-6.075,0-11,3.758-11,8.394v31.6c0,4.634,3.481,11.05,7.777,14.328" transform="translate(-304.075 -619.049)" fill="#fff"/>
    <path id="Path_375" data-name="Path 375" d="M320.467,638.777l.141-.735c.314-1.628.535-3.223,2.446-3.223,1.528,0,1.857.572,1.538,2.393l-.3,1.565Zm-4.642,4.247c-1.11,5.3.247,7.567,4.654,7.567,3.91,0,5.932-2.555,6.561-6.577h-3.821c-.38,2.267-1.006,3.385-2.417,3.385-1.147,0-1.884-.447-1.456-2.81l.5-2.619h7.646l.469-2.427c.947-4.918.969-7.92-4.354-7.92-3.761,0-6.23,2.427-6.874,6.674Z" transform="translate(-297.224 -611.48)"/>
    <path id="Path_376" data-name="Path 376" d="M327.391,652.492l4.037-24.5h-4.264l-4.035,24.5Z" transform="translate(-292.607 -613.663)"/>
    <path id="Path_377" data-name="Path 377" d="M340.856,632.222l.668-4.285h-4.312l-.668,4.285Z" transform="translate(-284.531 -613.699)"/>
    <path id="Path_378" data-name="Path 378" d="M338.615,650.237l3.2-18.494H337.5l-3.2,18.494Z" transform="translate(-285.879 -611.408)"/>
    <path id="Path_379" data-name="Path 379" d="M342.778,652.492l4.437-24.5h-4.264l-4.436,24.5Z" transform="translate(-283.344 -613.663)"/>
    <path id="Path_380" data-name="Path 380" d="M317.129,635.1a6.282,6.282,0,0,0,.05-1.948,1.245,1.245,0,0,0-1.389-1.139c-1.109,0-1.5.527-1.756,2.039a2.719,2.719,0,0,0,.232,1.89,3.194,3.194,0,0,0,.5.657c.207.213.437.418.676.637a18.581,18.581,0,0,1,3.335,3.087,8.6,8.6,0,0,1,.8,5.938c-.78,4.567-3.66,6.984-7.284,6.984-4.5,0-5.547-3.159-4.819-7.436l.261-1.545h4.4l-.218,1.274c-.476,2.342-.537,3.313.985,3.313,1.389,0,2.215-.456,2.512-2.188a3.071,3.071,0,0,0-.851-2.946c-.388-.444-.814-.862-1.245-1.27s-.879-.817-1.31-1.24a9.887,9.887,0,0,1-2.223-3.01,7.279,7.279,0,0,1-.32-3.744c.7-4.123,3-6.419,6.906-6.419,2.944,0,4.189,1.416,4.612,3.162a8.53,8.53,0,0,1,.149,2.624c-.035.45-.088.884-.147,1.278Z" transform="translate(-302.152 -613.641)"/>
    <path id="Path_381" data-name="Path 381" d="M331.086,644.636h-3.941s-.7,2.779.526,4.325,3.023,1.73,5.211,1.73,6.089-2.821,5.913-7.512-5.738-3.872-5.738-6.6,3.241-2.416,2.629.455h4.248s.876-5.6-4.6-5.6-6.962,3.732-6.962,7.148,5.913,4.921,5.913,7.015a1.506,1.506,0,0,1-2.938.546c-.259-1.413-.259-1.5-.259-1.5" transform="translate(-290.308 -611.596)"/>
    <path id="Path_382" data-name="Path 382" d="M347.064,631v-1.078h.908c.364,0,.9,0,.9.508,0,.481-.288.581-.711.57Zm1.522.573c.663-.048,1.017-.332,1.017-1.033a1.094,1.094,0,0,0-.436-.987,2.136,2.136,0,0,0-1.022-.175h-1.818v3.8h.737v-1.6h.737l.838,1.6h.854Zm-.822,2.553a2.863,2.863,0,1,1,2.821-2.867,2.833,2.833,0,0,1-2.821,2.867m0,.665a3.528,3.528,0,1,0-3.484-3.532,3.513,3.513,0,0,0,3.484,3.532" transform="translate(-279.874 -613.822)"/>
    <path id="Path_383" data-name="Path 383" d="M308.359,645.819h59.749v-.863H308.359" transform="translate(-301.496 -603.455)"/>
  </g>
</svg>
