<svg id="Group_6825" data-name="Group 6825" xmlns="http://www.w3.org/2000/svg" xmlns:xlink="http://www.w3.org/1999/xlink" width="116.471" height="75.919" viewBox="0 0 116.471 75.919">
  <defs>
    <clipPath id="clip-path">
      <rect id="Rectangle_174" data-name="Rectangle 174" width="116.471" height="75.919"/>
    </clipPath>
    <clipPath id="clip-path-2">
      <rect id="Rectangle_175" data-name="Rectangle 175" width="101.878" height="34.524" fill="#fff"/>
    </clipPath>
    <clipPath id="clip-path-3">
      <rect id="Rectangle_176" data-name="Rectangle 176" width="98.675" height="6.631" fill="#fff"/>
    </clipPath>
  </defs>
  <g id="Group_6722" data-name="Group 6722" transform="translate(0 0)">
    <g id="Group_4833" data-name="Group 4833" transform="translate(0)">
      <g id="Group_4832" data-name="Group 4832" transform="translate(0)" clip-path="url(#clip-path)">
        <path id="Path_489" data-name="Path 489" d="M605.842,765.848H499.984a5.324,5.324,0,0,1-5.309-5.307V679.756a5.324,5.324,0,0,1,5.309-5.307H605.842a5.322,5.322,0,0,1,5.307,5.307v80.785a5.322,5.322,0,0,1-5.307,5.307" transform="translate(-494.677 -689.929)"/>
      </g>
    </g>
    <g id="Group_4835" data-name="Group 4835" transform="translate(7.792 15.47)">
      <g id="Group_4834" data-name="Group 4834" transform="translate(0)" clip-path="url(#clip-path-2)">
        <path id="Path_490" data-name="Path 490" d="M546.421,693.637h.826a4.275,4.275,0,0,0,1.007-.066.611.611,0,0,0,.316-.229.7.7,0,0,0,.112-.406.652.652,0,0,0-.149-.44.7.7,0,0,0-.424-.213c-.088-.012-.362-.018-.818-.018h-.87Zm-1.121,3.123v-5.411h2.359a4.122,4.122,0,0,1,1.288.147,1.267,1.267,0,0,1,.647.518,1.551,1.551,0,0,1,.241.852,1.435,1.435,0,0,1-.368,1.007,1.782,1.782,0,0,1-1.1.5,2.686,2.686,0,0,1,.6.454,6.366,6.366,0,0,1,.637.88l.677,1.055h-1.338l-.81-1.18a7.683,7.683,0,0,0-.591-.793.881.881,0,0,0-.338-.225,1.9,1.9,0,0,0-.565-.06h-.223v2.259Z" transform="translate(-451.371 -688.342)" fill="#fff"/>
        <path id="Path_491" data-name="Path 491" d="M521.861,713.234l.559.627c.257.257.115.559-.233.559h-2.047c-2.652,0-5.234-.116-7-2.3-1.792-2.188-10.027-11.12-10.027-11.12l-.675-.723c-.233-.253-.115-.557.257-.557h2.047c2.65,0,5.236.117,7,2.3s9.187,10.306,9.187,10.306Z" transform="translate(-494.759 -679.895)" fill="#fff"/>
        <path id="Path_492" data-name="Path 492" d="M514.908,716.8a21.281,21.281,0,0,1-3.352.257c-9.233,0-13-4.885-13-10.772,0-5.861,3.77-10.77,13-10.77s13,4.909,13,10.77a10.44,10.44,0,0,1-2.068,6.536c-1.676-1.836-3.747-4.117-5.12-5.7a4.882,4.882,0,0,0,.048-.838c0-3.768-2.63-6.769-5.865-6.769s-5.861,3-5.861,6.769c0,3.747,2.628,6.769,5.861,6.769a5.278,5.278,0,0,0,1.214-.139c1.324,1.467,2.51,2.815,3.209,3.629a8.636,8.636,0,0,1-1.071.255" transform="translate(-498.554 -684.136)" fill="#fff"/>
        <path id="Path_493" data-name="Path 493" d="M526.187,716.467v-14.7h-5.538v11.98a3.339,3.339,0,0,1-1.42.257,1.446,1.446,0,0,1-1.65-1.513V701.764h-5.514v10.328c0,4.049,2.419,5.584,7.095,5.584a16.512,16.512,0,0,0,7.027-1.21m7.3-19.24a2.893,2.893,0,0,0-5.722,0,2.886,2.886,0,0,0,5.722,0m-.114,4.537H527.86V717.4h5.516Zm7.3-7.141h-5.536V717.4h5.536ZM558.5,709.35c0-4.724-2.954-8.19-8.23-8.19-5.214,0-8.19,3.466-8.19,8.19,0,4.768,2.928,8.232,8.19,8.232s8.208-3.464,8.23-8.232m-6.163-.072c0,2.652-.374,4.561-2.068,4.561-1.678,0-2.074-1.909-2.074-4.561s.372-4.652,2.074-4.652,2.068,2,2.068,4.652m17.843,3.257c0-1.766-.651-3.233-3.653-4.559-1.117-.488-1.722-1-1.722-1.814a1.23,1.23,0,0,1,1.4-1.21,4.187,4.187,0,0,1,2.279.768l1.328-3.07a8.935,8.935,0,0,0-4.909-1.188c-3.279,0-5.516,2.234-5.516,5.1,0,1.6.653,3.211,3.422,4.328,1.3.559,1.724,1.045,1.724,1.812,0,.721-.607,1.212-1.469,1.212a4.517,4.517,0,0,1-2.652-.886l-1.419,3.466a9.686,9.686,0,0,0,4.933,1.163c3.928,0,6.257-2.162,6.257-5.118m14.7,3.954v-9c0-4.42-2.626-6.026-6.464-6.026a16.009,16.009,0,0,0-6.422,1.234l1.115,3.095a11.1,11.1,0,0,1,4.236-.952c1.513,0,2.4.348,2.4,1.6v.6c-4.632.442-8.729,1.557-8.729,5.56,0,3.444,2.56,5.072,7.282,5.072a14.939,14.939,0,0,0,6.583-1.188m-5.136-2.023a2.677,2.677,0,0,1-1.167.211c-1.535,0-2.417-.7-2.417-2.3,0-2.164,1.489-2.7,3.585-2.861Z" transform="translate(-484.917 -685.037)" fill="#fff"/>
        <path id="Path_494" data-name="Path 494" d="M554.15,695.338a4.671,4.671,0,0,0-1.421-3.35,4.925,4.925,0,0,0-3.446-1.392h-.062a4.984,4.984,0,0,0-1.8.358,4.916,4.916,0,0,0-1.581,1.035,4.747,4.747,0,0,0-1.055,1.539h0a4.692,4.692,0,0,0,0,3.623h0a4.728,4.728,0,0,0,1.055,1.539,4.878,4.878,0,0,0,1.581,1.033,4.971,4.971,0,0,0,1.76.36h.1a4.983,4.983,0,0,0,1.865-.36,4.9,4.9,0,0,0,1.581-1.033,4.651,4.651,0,0,0,1.053-1.537,4.581,4.581,0,0,0,.368-1.815m-4.867-5.485a5.662,5.662,0,0,1,3.965,1.605,5.394,5.394,0,0,1,1.222,5.982,5.606,5.606,0,0,1-1.222,1.782,5.662,5.662,0,0,1-3.965,1.6h-.237v0a5.756,5.756,0,0,1-1.905-.41h0a5.687,5.687,0,0,1-1.82-1.189,5.505,5.505,0,0,1-1.222-1.782,5.388,5.388,0,0,1,0-4.2,5.524,5.524,0,0,1,1.222-1.784,5.638,5.638,0,0,1,1.822-1.187,5.761,5.761,0,0,1,1.905-.412v0Z" transform="translate(-453.016 -689.852)" fill="#fff"/>
        <path id="Path_495" data-name="Path 495" d="M546.421,693.637h.826a4.275,4.275,0,0,0,1.007-.066.611.611,0,0,0,.316-.229.7.7,0,0,0,.112-.406.652.652,0,0,0-.149-.44.7.7,0,0,0-.424-.213c-.088-.012-.362-.018-.818-.018h-.87Zm-1.121,3.123v-5.411h2.359a4.122,4.122,0,0,1,1.288.147,1.267,1.267,0,0,1,.647.518,1.551,1.551,0,0,1,.241.852,1.435,1.435,0,0,1-.368,1.007,1.782,1.782,0,0,1-1.1.5,2.686,2.686,0,0,1,.6.454,6.366,6.366,0,0,1,.637.88l.677,1.055h-1.338l-.81-1.18a7.683,7.683,0,0,0-.591-.793.881.881,0,0,0-.338-.225,1.9,1.9,0,0,0-.565-.06h-.223v2.259Z" transform="translate(-451.371 -688.342)" fill="#fff"/>
      </g>
    </g>
    <g id="Group_4837" data-name="Group 4837" transform="translate(9.396 59.268)">
      <g id="Group_4836" data-name="Group 4836" transform="translate(0)" clip-path="url(#clip-path-3)">
        <path id="Path_496" data-name="Path 496" d="M592.874,711.743h2.4v5.437h2.757v.989h-5.154Zm-7.354,0h3.08l1.923,6.426H588.2l-.309-1.344h-2.013l-.406,1.344h-2.118Zm1.453,1.107-.792,2.982h1.483l-.631-2.982Zm-12.753-1.107h3.137l1.724,5.437h.155l-.173-5.437h1.955v6.426h-3.169l-1.69-5.439H576l.163,5.439h-1.939Zm-5.385,1.887a1.2,1.2,0,0,0-.187-.808.949.949,0,0,0-.673-.187.919.919,0,0,0-.669.193,1.19,1.19,0,0,0-.191.8v2.659a1.188,1.188,0,0,0,.189.8,1.292,1.292,0,0,0,1.342,0,1.184,1.184,0,0,0,.189-.8Zm2.389.293v2.068a2.025,2.025,0,0,1-.713,1.8,6.847,6.847,0,0,1-5.074.006,2.031,2.031,0,0,1-.709-1.8v-2.068a2.013,2.013,0,0,1,.709-1.788,6.865,6.865,0,0,1,5.076,0,2.013,2.013,0,0,1,.711,1.788m-11.941-2.18h2.405v6.426h-2.405Zm-2.956,1.429v.484h-2.341v-.569a.439.439,0,0,0-.135-.364.773.773,0,0,0-.466-.1.727.727,0,0,0-.448.1.446.446,0,0,0-.127.366v.416a.575.575,0,0,0,.217.436,3.2,3.2,0,0,0,.834.44l.985.41.235.095a3.425,3.425,0,0,1,.969.528,1.091,1.091,0,0,1,.285.4,1.466,1.466,0,0,1,.088.526v.394a1.247,1.247,0,0,1-.834,1.143,5.615,5.615,0,0,1-2.375.4,5.033,5.033,0,0,1-2.267-.374,1.3,1.3,0,0,1-.691-1.244v-.474h2.407v.547a.49.49,0,0,0,.157.418.874.874,0,0,0,.537.127.893.893,0,0,0,.524-.117.51.51,0,0,0,.153-.428v-.249a.622.622,0,0,0-.215-.468,3.792,3.792,0,0,0-1.009-.52l-.983-.414a2.876,2.876,0,0,1-1.019-.627,1.134,1.134,0,0,1-.307-.8v-.563c0-.432.283-.78.848-1.047a5.363,5.363,0,0,1,2.266-.4,4.211,4.211,0,0,1,2.023.384,1.238,1.238,0,0,1,.687,1.139m-8.8,0v.484H545.19v-.569a.439.439,0,0,0-.135-.364.77.77,0,0,0-.464-.1.73.73,0,0,0-.45.1.446.446,0,0,0-.127.366v.416a.569.569,0,0,0,.217.436,3.182,3.182,0,0,0,.832.44l.983.41c.054.02.135.052.239.095a3.394,3.394,0,0,1,.969.528,1.093,1.093,0,0,1,.285.4,1.468,1.468,0,0,1,.084.526v.394a1.243,1.243,0,0,1-.83,1.143,5.619,5.619,0,0,1-2.377.4,5.051,5.051,0,0,1-2.267-.374,1.3,1.3,0,0,1-.691-1.244v-.474h2.407v.547a.5.5,0,0,0,.159.418.864.864,0,0,0,.533.127.884.884,0,0,0,.526-.117.51.51,0,0,0,.151-.428v-.249a.613.613,0,0,0-.213-.468,3.839,3.839,0,0,0-1.007-.52l-.986-.414a2.922,2.922,0,0,1-1.017-.627,1.141,1.141,0,0,1-.305-.8v-.563c0-.432.283-.78.846-1.047a5.376,5.376,0,0,1,2.266-.4,4.231,4.231,0,0,1,2.025.384,1.242,1.242,0,0,1,.687,1.139m-13.6-1.429h4.77v.995h-2.373v1.577h2.206v.992h-2.206v1.873h2.576v.989h-4.973Zm-7.517,0h4.865v.995h-2.469v1.668h2.319v.991h-2.319v2.773h-2.4Zm-5.385,1.887a1.188,1.188,0,0,0-.187-.808.946.946,0,0,0-.673-.187.922.922,0,0,0-.667.193,1.179,1.179,0,0,0-.189.8v2.659a1.192,1.192,0,0,0,.185.8.957.957,0,0,0,.671.187.943.943,0,0,0,.671-.189,1.174,1.174,0,0,0,.189-.8Zm2.391.293v2.068a2.021,2.021,0,0,1-.715,1.8,6.836,6.836,0,0,1-5.07.006,2.027,2.027,0,0,1-.711-1.8v-2.068a2.008,2.008,0,0,1,.711-1.788,6.86,6.86,0,0,1,5.074,0,2.013,2.013,0,0,1,.711,1.788m-15.474-2.18h2.914a6.258,6.258,0,0,1,2.453.35,1.178,1.178,0,0,1,.746,1.141v.271a1.123,1.123,0,0,1-.536,1.027,4.149,4.149,0,0,1-1.776.436,3.645,3.645,0,0,1,1.8.414,1.364,1.364,0,0,1,.515,1.212v1.575h-2.4V716.2c0-.321-.08-.526-.239-.613a2.41,2.41,0,0,0-.966-.127H510.2v2.713h-2.248Zm2.248.961v1.806h.213a2.066,2.066,0,0,0,.971-.159.6.6,0,0,0,.269-.573v-.344a.607.607,0,0,0-.269-.573,2.067,2.067,0,0,0-.971-.159Zm-10.846-.961h2.508a6.431,6.431,0,0,1,2.708.4,1.39,1.39,0,0,1,.79,1.348v.418a1.42,1.42,0,0,1-.754,1.328,4.95,4.95,0,0,1-2.345.424H501.6v2.5h-2.246Zm2.246.961v2.011h.213a1.634,1.634,0,0,0,.9-.179.731.731,0,0,0,.255-.641v-.382a.72.72,0,0,0-.255-.633,1.673,1.673,0,0,0-.9-.177Z" transform="translate(-499.353 -711.649)" fill="#fff"/>
      </g>
    </g>
  </g>
</svg>
