<svg xmlns="http://www.w3.org/2000/svg" width="117.959" height="41.328" viewBox="0 0 117.959 41.328">
  <g id="Group_6821" data-name="Group 6821" style="isolation: isolate">
    <path id="Path_350" data-name="Path 350" d="M216.4,697.35c.014,0,.023,0,.023-.019s-.016-.015-.028-.015h-.022v.034Zm-.027.084h-.033v-.143h.056c.037,0,.06.01.06.043s-.015.036-.041.037l.039.062h-.032l-.035-.06h-.014Zm.022-.171a.1.1,0,1,0,.1.1.1.1,0,0,0-.1-.1m-.139.1a.14.14,0,1,1,.139.13.131.131,0,0,1-.139-.13" transform="translate(-174.124 -677.649)"/>
    <path id="Path_351" data-name="Path 351" d="M216.4,697.35c.014,0,.023,0,.023-.019s-.016-.015-.028-.015h-.022v.034Zm-.027.084h-.033v-.143h.056c.037,0,.06.01.06.043s-.015.036-.041.037l.039.062h-.032l-.035-.06h-.014Zm.022-.171a.1.1,0,1,0,.1.1A.1.1,0,0,0,216.4,697.263Zm-.139.1a.14.14,0,1,1,.139.13A.131.131,0,0,1,216.256,697.363Z" transform="translate(-174.124 -677.649)" stroke="#fff" stroke-miterlimit="10" stroke-width="0.076"/>
    <path id="Path_352" data-name="Path 352" d="M298.082,701.184a1.623,1.623,0,0,1-1.028.859c-.4.13-4.907,1.735-10.617,3.767-8.532,3.037-19.151,6.817-21.963,7.781-2.6.89-8.259,2.928-13.252,4.727-3.963,1.427-7.386,2.659-8.117,2.9a12.43,12.43,0,0,1-7.83,0c-.73-.239-4.153-1.471-8.115-2.9-4.994-1.8-10.655-3.836-13.254-4.727-2.811-.963-13.432-4.743-21.966-7.782-5.707-2.031-10.215-3.636-10.613-3.766a.873.873,0,1,1,0-1.718c.4-.13,4.909-1.735,10.619-3.768,8.532-3.036,19.15-6.816,21.96-7.78,2.6-.89,8.261-2.929,13.256-4.727,3.961-1.427,7.382-2.659,8.112-2.9a12.427,12.427,0,0,1,7.83,0c.731.239,4.152,1.471,8.115,2.9,4.994,1.8,10.655,3.837,13.254,4.727,2.811.963,13.427,4.742,21.958,7.778,5.711,2.034,10.224,3.64,10.622,3.769a1.623,1.623,0,0,1,1.028.859" transform="translate(-180.3 -680.52)"/>
    <path id="Path_353" data-name="Path 353" d="M298.233,701.184a1.623,1.623,0,0,1-1.028.859c-.4.13-4.907,1.735-10.617,3.767-8.532,3.037-19.151,6.817-21.963,7.781-2.6.89-8.259,2.928-13.252,4.727-3.963,1.427-7.386,2.659-8.117,2.9a12.43,12.43,0,0,1-7.83,0c-.73-.239-4.153-1.471-8.115-2.9-4.994-1.8-10.655-3.836-13.254-4.727-2.811-.963-13.432-4.743-21.966-7.782-5.707-2.031-10.353-3.948-10.75-4.078-.7-.229-.818-.377-.892-.547a1.63,1.63,0,0,1,1.029-.859c.4-.13,4.909-1.735,10.619-3.768,8.533-3.036,19.15-6.816,21.96-7.78,2.6-.89,8.261-2.929,13.256-4.727,3.962-1.427,7.382-2.659,8.112-2.9a12.427,12.427,0,0,1,7.83,0c.731.239,4.152,1.471,8.115,2.9,4.994,1.8,10.655,3.837,13.254,4.727,2.811.963,13.427,4.742,21.958,7.778,5.711,2.034,10.224,3.64,10.622,3.769A1.623,1.623,0,0,1,298.233,701.184Z" transform="translate(-180.275 -680.52)" fill="#fff"/>
    <path id="Path_354" data-name="Path 354" d="M214.58,696.25h-.026l-1.331,5.314h-3.011l-1.848-6.98a2.727,2.727,0,0,0-.53-1.041h3.747a1.088,1.088,0,0,0-.1.526,3.15,3.15,0,0,0,.1.79l.956,3.86h.026l1.292-5.176h3.153l1.357,5.189h.026l.944-3.873a3.15,3.15,0,0,0,.1-.79.959.959,0,0,0-.117-.526h2a2.459,2.459,0,0,0-.594,1.215l-1.693,6.806h-3.05Z" transform="translate(-175.571 -678.283)"/>
    <path id="Path_355" data-name="Path 355" d="M214.58,696.25h-.026l-1.331,5.314h-3.011l-1.848-6.98a2.727,2.727,0,0,0-.53-1.041h3.747a1.088,1.088,0,0,0-.1.526,3.15,3.15,0,0,0,.1.79l.956,3.86h.026l1.292-5.176h3.153l1.357,5.189h.026l.944-3.873a3.15,3.15,0,0,0,.1-.79.959.959,0,0,0-.117-.526h2a2.459,2.459,0,0,0-.594,1.215l-1.693,6.806h-3.05Z" transform="translate(-175.571 -678.283)" stroke="#fff" stroke-miterlimit="10" stroke-width="0.076"/>
    <path id="Path_356" data-name="Path 356" d="M221.957,699.622c0,.339.1.477.438.477h1.267c.362,0,.465-.138.465-.477v-2.631c0-.339-.1-.477-.465-.477H222.4c-.335,0-.438.138-.438.477Zm5.22-.15c0,1.228-.388,1.78-1.758,1.78h-4.755c-1.371,0-1.758-.552-1.758-1.78v-2.331c0-1.228.387-1.78,1.758-1.78h4.755c1.37,0,1.758.552,1.758,1.78Z" transform="translate(-173.669 -677.971)"/>
    <path id="Path_357" data-name="Path 357" d="M221.957,699.622c0,.339.1.477.438.477h1.267c.362,0,.465-.138.465-.477v-2.631c0-.339-.1-.477-.465-.477H222.4c-.335,0-.438.138-.438.477Zm5.22-.15c0,1.228-.388,1.78-1.758,1.78h-4.755c-1.371,0-1.758-.552-1.758-1.78v-2.331c0-1.228.387-1.78,1.758-1.78h4.755c1.37,0,1.758.552,1.758,1.78Z" transform="translate(-173.669 -677.971)" stroke="#fff" stroke-miterlimit="10" stroke-width="0.076"/>
    <path id="Path_358" data-name="Path 358" d="M226.488,694.9a2.1,2.1,0,0,0-.336-1.353h3.387v6.667a2.1,2.1,0,0,0,.335,1.354h-3.722a2.1,2.1,0,0,0,.336-1.354Z" transform="translate(-172.424 -678.283)"/>
    <path id="Path_359" data-name="Path 359" d="M226.488,694.9a2.1,2.1,0,0,0-.336-1.353h3.387v6.667a2.1,2.1,0,0,0,.335,1.354h-3.722a2.1,2.1,0,0,0,.336-1.354Z" transform="translate(-172.424 -678.283)" stroke="#fff" stroke-miterlimit="10" stroke-width="0.076"/>
    <path id="Path_360" data-name="Path 360" d="M232.454,695.361l.077.715h.026c.13-.376.272-.715.789-.715h2.727c.75,0,.879.163,1.059.639h.026a.68.68,0,0,1,.686-.639h2.094c1.008,0,1.848.275,1.848,2.306V699.9a2.1,2.1,0,0,0,.336,1.354h-3.464a2.1,2.1,0,0,0,.336-1.354V696.94c0-.3-.143-.426-.375-.426h-1.008c-.233,0-.375.125-.375.426V699.9a2.1,2.1,0,0,0,.336,1.354h-3.464a2.1,2.1,0,0,0,.336-1.354V696.94c0-.3-.143-.426-.375-.426h-1.009c-.232,0-.374.125-.374.426V699.9a2.1,2.1,0,0,0,.335,1.354H229.56a2.1,2.1,0,0,0,.335-1.354v-3.184a2.1,2.1,0,0,0-.335-1.353Z" transform="translate(-171.838 -677.971)"/>
    <path id="Path_361" data-name="Path 361" d="M232.454,695.361l.077.715h.026c.13-.376.272-.715.789-.715h2.727c.75,0,.879.163,1.059.639h.026a.68.68,0,0,1,.686-.639h2.094c1.008,0,1.848.275,1.848,2.306V699.9a2.1,2.1,0,0,0,.336,1.354h-3.464a2.1,2.1,0,0,0,.336-1.354V696.94c0-.3-.143-.426-.375-.426h-1.008c-.233,0-.375.125-.375.426V699.9a2.1,2.1,0,0,0,.336,1.354h-3.464a2.1,2.1,0,0,0,.336-1.354V696.94c0-.3-.143-.426-.375-.426h-1.009c-.232,0-.374.125-.374.426V699.9a2.1,2.1,0,0,0,.335,1.354H229.56a2.1,2.1,0,0,0,.335-1.354v-3.184a2.1,2.1,0,0,0-.335-1.353Z" transform="translate(-171.838 -677.971)" stroke="#fff" stroke-miterlimit="10" stroke-width="0.076"/>
    <path id="Path_362" data-name="Path 362" d="M244.208,698.419c-.465.012-.647.075-.647.5v.677c0,.427.182.489.647.5h.71c.582,0,.647-.088.647-.84v-.839Zm2.365-3.058c1.46,0,2.042.6,2.042,2.218v2.568a1.612,1.612,0,0,0,.3,1.1h-3.049l-.156-.652h-.026c-.155.526-.414.652-1.241.652h-2.171c-1.369,0-1.756-.552-1.756-1.78v-.427c0-1.228.388-1.779,1.756-1.779h2.779c.427,0,.517-.1.517-.376s-.09-.376-.517-.376h-3.037a2.415,2.415,0,0,0-1.215.251l.22-1.4Z" transform="translate(-169.957 -677.971)"/>
    <path id="Path_363" data-name="Path 363" d="M244.208,698.419c-.465.012-.647.075-.647.5v.677c0,.427.182.489.647.5h.71c.582,0,.647-.088.647-.84v-.839Zm2.365-3.058c1.46,0,2.042.6,2.042,2.218v2.568a1.612,1.612,0,0,0,.3,1.1h-3.049l-.156-.652h-.026c-.155.526-.414.652-1.241.652h-2.171c-1.369,0-1.756-.552-1.756-1.78v-.427c0-1.228.388-1.779,1.756-1.779h2.779c.427,0,.517-.1.517-.376s-.09-.376-.517-.376h-3.037a2.415,2.415,0,0,0-1.215.251l.22-1.4Z" transform="translate(-169.957 -677.971)" stroke="#fff" stroke-miterlimit="10" stroke-width="0.076"/>
    <path id="Path_364" data-name="Path 364" d="M250.987,695.361l.09.614h.026a.859.859,0,0,1,.789-.614h2.469c1.434,0,2.028.827,2.028,2.143V699.9a2.1,2.1,0,0,0,.336,1.354H253a2.1,2.1,0,0,0,.336-1.354V697c0-.363-.129-.489-.5-.489h-1.111c-.375,0-.5.125-.5.489v2.9a2.1,2.1,0,0,0,.335,1.354h-3.721a2.1,2.1,0,0,0,.336-1.354v-3.184a2.1,2.1,0,0,0-.336-1.353Z" transform="translate(-168.7 -677.971)"/>
    <path id="Path_365" data-name="Path 365" d="M250.987,695.361l.09.614h.026a.859.859,0,0,1,.789-.614h2.469c1.434,0,2.028.827,2.028,2.143V699.9a2.1,2.1,0,0,0,.336,1.354H253a2.1,2.1,0,0,0,.336-1.354V697c0-.363-.129-.489-.5-.489h-1.111c-.375,0-.5.125-.5.489v2.9a2.1,2.1,0,0,0,.335,1.354h-3.721a2.1,2.1,0,0,0,.336-1.354v-3.184a2.1,2.1,0,0,0-.336-1.353Z" transform="translate(-168.7 -677.971)" stroke="#fff" stroke-miterlimit="10" stroke-width="0.076"/>
  </g>
</svg>
