<svg xmlns="http://www.w3.org/2000/svg" xmlns:xlink="http://www.w3.org/1999/xlink" width="72.275" height="47.111" viewBox="0 0 72.275 47.111">
  <defs>
    <clipPath id="clip-path">
      <rect id="Rectangle_174" data-name="Rectangle 174" width="72.275" height="47.111" fill="#fff"/>
    </clipPath>
    <clipPath id="clip-path-2">
      <rect id="Rectangle_175" data-name="Rectangle 175" width="63.219" height="21.424"/>
    </clipPath>
    <clipPath id="clip-path-3">
      <rect id="Rectangle_176" data-name="Rectangle 176" width="61.232" height="4.115"/>
    </clipPath>
  </defs>
  <g id="Group_6825" data-name="Group 6825" transform="translate(12709.088 700.858)">
    <g id="Group_6722" data-name="Group 6722" transform="translate(-12709.088 -700.858)">
      <g id="Group_4833" data-name="Group 4833" transform="translate(0)">
        <g id="Group_4832" data-name="Group 4832" transform="translate(0)" clip-path="url(#clip-path)">
          <path id="Path_489" data-name="Path 489" d="M563.659,731.166H497.969a3.3,3.3,0,0,1-3.294-3.293V677.742a3.3,3.3,0,0,1,3.294-3.293h65.689a3.3,3.3,0,0,1,3.293,3.293v50.131a3.3,3.3,0,0,1-3.293,3.293" transform="translate(-494.676 -684.055)" fill="#fff"/>
        </g>
      </g>
      <g id="Group_4835" data-name="Group 4835" transform="translate(4.835 9.6)">
        <g id="Group_4834" data-name="Group 4834" transform="translate(0)" clip-path="url(#clip-path-2)">
          <path id="Path_490" data-name="Path 490" d="M546,692.768h.513a2.651,2.651,0,0,0,.625-.041.379.379,0,0,0,.2-.142.435.435,0,0,0,.07-.252.4.4,0,0,0-.092-.273.436.436,0,0,0-.263-.132c-.055-.007-.224-.011-.507-.011H546Zm-.7,1.938v-3.358h1.464a2.558,2.558,0,0,1,.8.091.786.786,0,0,1,.4.322.963.963,0,0,1,.15.529.891.891,0,0,1-.228.625,1.106,1.106,0,0,1-.681.309,1.667,1.667,0,0,1,.373.282,3.941,3.941,0,0,1,.4.546l.42.655h-.83l-.5-.732a4.752,4.752,0,0,0-.367-.492.547.547,0,0,0-.209-.14,1.179,1.179,0,0,0-.35-.037H546v1.4Z" transform="translate(-487.013 -689.483)"/>
          <path id="Path_491" data-name="Path 491" d="M514.444,708.1l.347.389c.16.16.071.347-.145.347h-1.271c-1.646,0-3.248-.072-4.345-1.429s-6.222-6.9-6.222-6.9l-.419-.449c-.145-.157-.071-.345.16-.345h1.271c1.645,0,3.249.072,4.345,1.429s5.7,6.4,5.7,6.4Z" transform="translate(-497.626 -687.417)"/>
          <path id="Path_492" data-name="Path 492" d="M508.7,708.723a13.2,13.2,0,0,1-2.08.16c-5.729,0-8.069-3.031-8.069-6.685,0-3.637,2.339-6.683,8.069-6.683s8.07,3.046,8.07,6.683a6.479,6.479,0,0,1-1.283,4.056c-1.04-1.14-2.325-2.555-3.177-3.536a3.027,3.027,0,0,0,.03-.52,3.676,3.676,0,1,0-3.64,4.2,3.275,3.275,0,0,0,.753-.086c.822.91,1.557,1.747,1.991,2.252a5.359,5.359,0,0,1-.665.158" transform="translate(-498.554 -688.454)"/>
          <path id="Path_493" data-name="Path 493" d="M520.828,708.178v-9.123h-3.437v7.434a2.072,2.072,0,0,1-.881.16.9.9,0,0,1-1.024-.939v-6.654h-3.421v6.409c0,2.512,1.5,3.465,4.4,3.465a10.247,10.247,0,0,0,4.36-.751m4.532-11.939a1.8,1.8,0,0,0-3.551,0,1.791,1.791,0,0,0,3.551,0m-.071,2.815h-3.423v9.7h3.423Zm4.531-4.431h-3.435v14.132h3.435Zm11.057,9.138a5.095,5.095,0,1,0-5.107,5.108,4.765,4.765,0,0,0,5.107-5.108m-3.824-.045c0,1.646-.232,2.83-1.283,2.83s-1.287-1.184-1.287-2.83.231-2.887,1.287-2.887,1.283,1.241,1.283,2.887m11.072,2.021c0-1.1-.4-2.006-2.267-2.829-.693-.3-1.069-.621-1.069-1.126a.763.763,0,0,1,.867-.751,2.6,2.6,0,0,1,1.414.476l.824-1.905a5.545,5.545,0,0,0-3.046-.737,3.2,3.2,0,0,0-3.423,3.162c0,.995.405,1.992,2.123,2.686.809.347,1.07.648,1.07,1.125,0,.448-.377.752-.911.752a2.8,2.8,0,0,1-1.646-.55l-.88,2.151a6.011,6.011,0,0,0,3.061.722c2.438,0,3.883-1.342,3.883-3.176m9.122,2.454v-5.586c0-2.743-1.63-3.739-4.011-3.739a9.935,9.935,0,0,0-3.985.766l.692,1.92a6.885,6.885,0,0,1,2.628-.591c.939,0,1.489.216,1.489.995v.375c-2.874.274-5.416.966-5.416,3.45,0,2.137,1.589,3.147,4.519,3.147a9.271,9.271,0,0,0,4.085-.737m-3.187-1.256a1.661,1.661,0,0,1-.724.131c-.953,0-1.5-.434-1.5-1.43,0-1.343.924-1.676,2.224-1.776Z" transform="translate(-495.218 -688.674)"/>
          <path id="Path_494" data-name="Path 494" d="M550.173,693.256a2.9,2.9,0,0,0-.882-2.078,3.056,3.056,0,0,0-2.138-.864h-.039a3.093,3.093,0,0,0-1.118.222,3.049,3.049,0,0,0-.981.642,2.945,2.945,0,0,0-.655.955h0a2.912,2.912,0,0,0,0,2.248h0a2.933,2.933,0,0,0,.655.955,3.027,3.027,0,0,0,.981.641,3.087,3.087,0,0,0,1.092.223h.065a3.093,3.093,0,0,0,1.157-.223,3.04,3.04,0,0,0,.981-.641,2.886,2.886,0,0,0,.653-.954,2.843,2.843,0,0,0,.228-1.126m-3.02-3.4a3.513,3.513,0,0,1,2.46,1,3.347,3.347,0,0,1,.758,3.712,3.478,3.478,0,0,1-.758,1.106,3.513,3.513,0,0,1-2.46.995h-.147v0a3.572,3.572,0,0,1-1.182-.254h0a3.53,3.53,0,0,1-1.13-.738,3.416,3.416,0,0,1-.758-1.106,3.343,3.343,0,0,1,0-2.606,3.428,3.428,0,0,1,.758-1.107,3.5,3.5,0,0,1,1.131-.737,3.575,3.575,0,0,1,1.182-.256v0Z" transform="translate(-487.416 -689.852)"/>
          <path id="Path_495" data-name="Path 495" d="M546,692.768h.513a2.651,2.651,0,0,0,.625-.041.379.379,0,0,0,.2-.142.435.435,0,0,0,.07-.252.4.4,0,0,0-.092-.273.436.436,0,0,0-.263-.132c-.055-.007-.224-.011-.507-.011H546Zm-.7,1.938v-3.358h1.464a2.558,2.558,0,0,1,.8.091.786.786,0,0,1,.4.322.963.963,0,0,1,.15.529.891.891,0,0,1-.228.625,1.106,1.106,0,0,1-.681.309,1.667,1.667,0,0,1,.373.282,3.941,3.941,0,0,1,.4.546l.42.655h-.83l-.5-.732a4.752,4.752,0,0,0-.367-.492.547.547,0,0,0-.209-.14,1.179,1.179,0,0,0-.35-.037H546v1.4Z" transform="translate(-487.013 -689.483)"/>
        </g>
      </g>
      <g id="Group_4837" data-name="Group 4837" transform="translate(5.83 36.778)">
        <g id="Group_4836" data-name="Group 4836" transform="translate(0)" clip-path="url(#clip-path-3)">
          <path id="Path_496" data-name="Path 496" d="M557.386,711.708h1.488v3.374h1.711v.614h-3.2Zm-4.564,0h1.911l1.193,3.988h-1.441l-.192-.834h-1.249l-.252.834h-1.314Zm.9.687-.491,1.85h.92l-.392-1.85Zm-7.914-.687h1.946l1.07,3.374h.1l-.107-3.374h1.213V715.7h-1.966l-1.049-3.375h-.1l.1,3.375h-1.2Zm-3.342,1.171a.744.744,0,0,0-.116-.5.589.589,0,0,0-.418-.116.57.57,0,0,0-.415.12.738.738,0,0,0-.118.5v1.65a.737.737,0,0,0,.117.5.8.8,0,0,0,.833,0,.735.735,0,0,0,.117-.5Zm1.482.182v1.283a1.257,1.257,0,0,1-.443,1.115,4.249,4.249,0,0,1-3.148,0,1.261,1.261,0,0,1-.44-1.118V713.06a1.249,1.249,0,0,1,.44-1.11,4.26,4.26,0,0,1,3.15,0,1.249,1.249,0,0,1,.441,1.11m-7.41-1.353h1.493V715.7H536.54Zm-1.834.887v.3h-1.453v-.353a.272.272,0,0,0-.084-.226.479.479,0,0,0-.289-.065.451.451,0,0,0-.278.064.277.277,0,0,0-.079.227v.258a.357.357,0,0,0,.135.271,1.985,1.985,0,0,0,.517.273l.611.254.146.059a2.125,2.125,0,0,1,.6.328.676.676,0,0,1,.177.248.91.91,0,0,1,.055.327v.244a.774.774,0,0,1-.518.709,3.484,3.484,0,0,1-1.474.249,3.122,3.122,0,0,1-1.406-.232.806.806,0,0,1-.429-.772v-.294h1.494v.339a.3.3,0,0,0,.1.259.542.542,0,0,0,.333.078.555.555,0,0,0,.325-.072.317.317,0,0,0,.095-.266v-.155a.386.386,0,0,0-.133-.291,2.354,2.354,0,0,0-.626-.323l-.61-.257a1.786,1.786,0,0,1-.632-.389.7.7,0,0,1-.191-.5v-.349c0-.268.176-.484.526-.65a3.328,3.328,0,0,1,1.406-.247,2.613,2.613,0,0,1,1.256.238.769.769,0,0,1,.426.707m-5.458,0v.3H527.8v-.353a.272.272,0,0,0-.084-.226.478.478,0,0,0-.288-.065.453.453,0,0,0-.279.064.277.277,0,0,0-.079.227v.258a.353.353,0,0,0,.135.271,1.972,1.972,0,0,0,.516.273l.61.254.148.059a2.106,2.106,0,0,1,.6.328.678.678,0,0,1,.177.248.911.911,0,0,1,.052.327v.244a.771.771,0,0,1-.515.709,3.487,3.487,0,0,1-1.475.249,3.134,3.134,0,0,1-1.406-.232.808.808,0,0,1-.429-.772v-.294h1.494v.339a.308.308,0,0,0,.1.259.536.536,0,0,0,.33.078.549.549,0,0,0,.327-.072.317.317,0,0,0,.093-.266v-.155a.381.381,0,0,0-.132-.291,2.384,2.384,0,0,0-.625-.323l-.612-.257a1.815,1.815,0,0,1-.631-.389.708.708,0,0,1-.19-.5v-.349c0-.268.176-.484.525-.65a3.336,3.336,0,0,1,1.406-.247,2.626,2.626,0,0,1,1.257.238.771.771,0,0,1,.426.707m-8.438-.887h2.96v.617H522.3v.979h1.369v.616H522.3v1.162h1.6v.614h-3.086Zm-4.665,0h3.019v.617h-1.532v1.035h1.439v.615h-1.439V715.7h-1.486Zm-3.342,1.171a.737.737,0,0,0-.116-.5.587.587,0,0,0-.418-.116.572.572,0,0,0-.414.12.732.732,0,0,0-.117.5v1.65a.74.74,0,0,0,.115.5.594.594,0,0,0,.416.116.585.585,0,0,0,.416-.117.728.728,0,0,0,.117-.5Zm1.484.182v1.283a1.254,1.254,0,0,1-.444,1.115,4.242,4.242,0,0,1-3.146,0,1.258,1.258,0,0,1-.441-1.118V713.06a1.246,1.246,0,0,1,.441-1.11,4.257,4.257,0,0,1,3.148,0,1.249,1.249,0,0,1,.441,1.11m-9.6-1.353h1.808a3.884,3.884,0,0,1,1.522.217.731.731,0,0,1,.463.708v.168a.7.7,0,0,1-.333.637,2.574,2.574,0,0,1-1.1.271,2.262,2.262,0,0,1,1.116.257.846.846,0,0,1,.319.752v.978h-1.488v-1.224c0-.2-.05-.327-.148-.38a1.5,1.5,0,0,0-.6-.078h-.162V715.7h-1.4Zm1.4.6v1.121h.132a1.283,1.283,0,0,0,.6-.1.376.376,0,0,0,.167-.355v-.213a.377.377,0,0,0-.167-.355,1.283,1.283,0,0,0-.6-.1Zm-6.731-.6h1.556a3.991,3.991,0,0,1,1.681.251.863.863,0,0,1,.49.837v.259a.881.881,0,0,1-.468.824,3.071,3.071,0,0,1-1.455.263h-.41V715.7h-1.394Zm1.394.6v1.248h.132a1.014,1.014,0,0,0,.559-.111.454.454,0,0,0,.158-.4v-.237a.446.446,0,0,0-.158-.393,1.038,1.038,0,0,0-.559-.11Z" transform="translate(-499.352 -711.649)"/>
        </g>
      </g>
    </g>
  </g>
</svg>
